<svg xmlns="http://www.w3.org/2000/svg" xmlns:xlink="http://www.w3.org/1999/xlink" width="218" height="232.77" viewBox="0 0 218 232.77">
  <defs>
    <style>
      .cls-1 {
        fill: url(#未命名的渐变_208);
      }

      .cls-2 {
        fill: url(#未命名的渐变_204);
      }

      .cls-3 {
        fill: url(#未命名的渐变_204-2);
      }

      .cls-4 {
        fill: url(#未命名的渐变_205);
      }

      .cls-5 {
        fill: url(#未命名的渐变_216);
      }

      .cls-6 {
        fill: url(#未命名的渐变_204-3);
      }

      .cls-7 {
        fill: url(#未命名的渐变_204-4);
      }

      .cls-8 {
        fill: url(#未命名的渐变_204-5);
      }

      .cls-9 {
        fill: url(#未命名的渐变_204-6);
      }

      .cls-10 {
        opacity: 0.47;
      }

      .cls-11 {
        fill: url(#未命名的渐变_1199);
      }

      .cls-12 {
        fill: url(#未命名的渐变_1199-2);
      }

      .cls-13 {
        fill: url(#未命名的渐变_1199-3);
      }

      .cls-14 {
        fill: url(#未命名的渐变_1199-4);
      }
    </style>
    <linearGradient id="未命名的渐变_208" data-name="未命名的渐变 208" x1="109" y1="244.12" x2="109" y2="-20.08" gradientUnits="userSpaceOnUse">
      <stop offset="0" stop-color="#03e7f5"/>
      <stop offset="0.19" stop-color="#02c5f4" stop-opacity="0.77"/>
      <stop offset="0.53" stop-color="#0189f1" stop-opacity="0.36"/>
      <stop offset="0.77" stop-color="#0064f0" stop-opacity="0.1"/>
      <stop offset="0.88" stop-color="#0055ef" stop-opacity="0"/>
    </linearGradient>
    <linearGradient id="未命名的渐变_204" data-name="未命名的渐变 204" x1="204.57" y1="175.13" x2="108.68" y2="139.8" gradientUnits="userSpaceOnUse">
      <stop offset="0" stop-color="#03e7f5"/>
      <stop offset="0.11" stop-color="#03d5f4" stop-opacity="0.9"/>
      <stop offset="0.55" stop-color="#0191f1" stop-opacity="0.53"/>
      <stop offset="0.86" stop-color="#0066f0" stop-opacity="0.29"/>
      <stop offset="1" stop-color="#0055ef" stop-opacity="0.2"/>
    </linearGradient>
    <linearGradient id="未命名的渐变_204-2" x1="109" y1="225.9" x2="109" y2="157.71" xlink:href="#未命名的渐变_204"/>
    <linearGradient id="未命名的渐变_205" data-name="未命名的渐变 205" x1="109" y1="152.69" x2="109" y2="236.74" gradientUnits="userSpaceOnUse">
      <stop offset="0" stop-color="#03e7f5"/>
      <stop offset="0.21" stop-color="#02c5f4" stop-opacity="0.77"/>
      <stop offset="0.6" stop-color="#0189f1" stop-opacity="0.36"/>
      <stop offset="0.87" stop-color="#0064f0" stop-opacity="0.1"/>
      <stop offset="1" stop-color="#0055ef" stop-opacity="0"/>
    </linearGradient>
    <linearGradient id="未命名的渐变_216" data-name="未命名的渐变 216" x1="109" y1="150.4" x2="109" y2="104.2" gradientUnits="userSpaceOnUse">
      <stop offset="0" stop-color="#03e7f5"/>
      <stop offset="0.08" stop-color="#03d5f4" stop-opacity="0.9"/>
      <stop offset="0.4" stop-color="#0191f1" stop-opacity="0.53"/>
      <stop offset="0.63" stop-color="#0066f0" stop-opacity="0.29"/>
      <stop offset="0.73" stop-color="#0055ef" stop-opacity="0.2"/>
    </linearGradient>
    <linearGradient id="未命名的渐变_204-3" x1="109" y1="147.02" x2="109" y2="80.94" xlink:href="#未命名的渐变_204"/>
    <linearGradient id="未命名的渐变_204-4" x1="109" y1="174.38" x2="109" y2="81.01" xlink:href="#未命名的渐变_204"/>
    <linearGradient id="未命名的渐变_204-5" x1="109" y1="111.8" x2="109" y2="41.66" xlink:href="#未命名的渐变_204"/>
    <linearGradient id="未命名的渐变_204-6" x1="110.34" y1="234.78" x2="23.01" y2="207.52" xlink:href="#未命名的渐变_204"/>
    <linearGradient id="未命名的渐变_1199" data-name="未命名的渐变 1199" x1="-237.23" y1="-13.42" x2="-259.29" y2="-35.92" gradientTransform="matrix(1.23, 0.14, -0.39, 0.77, 397.42, 238.79)" gradientUnits="userSpaceOnUse">
      <stop offset="0" stop-color="#5ac9ff"/>
      <stop offset="1" stop-color="#00e9e5"/>
    </linearGradient>
    <linearGradient id="未命名的渐变_1199-2" x1="-222.65" y1="-28.22" x2="-242.84" y2="-48.8" gradientTransform="matrix(1.21, 0.28, -0.48, 0.72, 389.3, 268.85)" xlink:href="#未命名的渐变_1199"/>
    <linearGradient id="未命名的渐变_1199-3" x1="-571.57" y1="-217.01" x2="-607.1" y2="-253.24" gradientTransform="matrix(1.47, 0.28, -0.78, 0.53, 794.84, 477.59)" xlink:href="#未命名的渐变_1199"/>
    <linearGradient id="未命名的渐变_1199-4" x1="-572.95" y1="-231.45" x2="-608.48" y2="-267.69" gradientTransform="matrix(1.47, 0.28, -0.78, 0.53, 794.84, 477.59)" xlink:href="#未命名的渐变_1199"/>
  </defs>
  <g id="图层_2" data-name="图层 2">
    <g id="图层_1-2" data-name="图层 1">
      <g>
        <path class="cls-1" d="M38.25,0V193.05c0-17.19,31.68-31.13,70.75-31.13s70.75,13.94,70.75,31.13V0Z"/>
        <path class="cls-2" d="M113.51,144.35c59.36.65,78.57,22.21,83.63,30.13a2.71,2.71,0,0,1-1.26,4l-2.22.91,2.51-1-.29.12a2.71,2.71,0,0,1-3.32-1c-1.73-2.68-5.76-7.73-13.8-12.75-18.87-11.8-45.43-14.68-65.31-14.9a2.71,2.71,0,0,1-2.67-2.71h0A2.72,2.72,0,0,1,113.51,144.35Z"/>
        <ellipse class="cls-3" cx="109" cy="190.35" rx="70.99" ry="28.42"/>
        <ellipse class="cls-4" cx="109" cy="182" rx="70.99" ry="25.72"/>
        <ellipse class="cls-5" cx="109" cy="126.85" rx="70.99" ry="25.72"/>
        <ellipse class="cls-6" cx="109" cy="117.02" rx="70.99" ry="25.72"/>
        <path class="cls-7" d="M109,165.87C48.9,165.87,0,148,0,126.08S48.9,86.3,109,86.3s109,17.85,109,39.78S169.1,165.87,109,165.87Zm0-78.65C49.41,87.22.92,104.66.92,126.08S49.41,164.94,109,164.94s108.07-17.43,108.07-38.86S168.59,87.22,109,87.22Z"/>
        <path class="cls-8" d="M109,105.4c-45.15,0-81.88-13.4-81.88-29.88S63.85,45.64,109,45.64,190.88,59,190.88,75.52,154.15,105.4,109,105.4Zm0-59.07c-44.77,0-81.18,13.09-81.18,29.19S64.23,104.71,109,104.71s81.18-13.1,81.18-29.19S153.76,46.33,109,46.33Z"/>
        <path class="cls-9" d="M101.22,232.77c-59.36-.64-78.57-22.2-83.63-30.13a2.72,2.72,0,0,1,1.25-4l2.22-.9-2.51,1,.29-.12a2.72,2.72,0,0,1,3.33,1c1.73,2.68,5.76,7.74,13.79,12.76,18.88,11.79,45.43,14.67,65.32,14.9a2.71,2.71,0,0,1,2.67,2.71h0A2.71,2.71,0,0,1,101.22,232.77Z"/>
        <g class="cls-10">
          <path class="cls-11" d="M126.36,192.21a4.78,4.78,0,0,0-2.83-1.15,8.31,8.31,0,0,0-4,.55,23.61,23.61,0,0,1-12.75,2c-4.68-.54-7.41-1.82-9.74-4.56a4.66,4.66,0,0,0-3-1.34,8.28,8.28,0,0,0-3.66.42c-2.49.89-3.56,2.76-2.37,4.15,3.54,4.17,8.4,6.4,15.77,7.24a39.6,39.6,0,0,0,20.72-3.08C126.9,195.43,127.73,193.54,126.36,192.21Z"/>
          <ellipse class="cls-12" cx="130.95" cy="182.96" rx="5.68" ry="3.36" transform="translate(-20.03 16.15) rotate(-6.56)"/>
          <path class="cls-13" d="M91.72,181.46h0c-2.07-1.25-1.85-3.4.5-4.81L106,168.37c2.35-1.41,5.92-1.54,8-.3h0c2.07,1.24,1.85,3.39-.5,4.8l-13.79,8.29C97.37,182.57,93.79,182.7,91.72,181.46Z"/>
          <path class="cls-14" d="M109.19,183.45h0c-2.07-1.24-1.85-3.39.5-4.8l13.79-8.29c2.35-1.41,5.92-1.54,8-.29h0c2.07,1.24,1.85,3.39-.5,4.8l-13.79,8.28C114.84,184.56,111.26,184.7,109.19,183.45Z"/>
        </g>
      </g>
    </g>
  </g>
</svg>
