<svg xmlns="http://www.w3.org/2000/svg" xmlns:xlink="http://www.w3.org/1999/xlink" width="271.09" height="80.24" viewBox="0 0 271.09 80.24">
  <defs>
    <style>
      .cls-1 {
        fill: url(#未命名的渐变_204);
      }

      .cls-2 {
        fill: url(#未命名的渐变_217);
      }

      .cls-3 {
        fill: url(#未命名的渐变_218);
      }

      .cls-4 {
        fill: url(#未命名的渐变_111);
      }

      .cls-5 {
        fill: url(#未命名的渐变_204-2);
      }

      .cls-6 {
        fill: url(#未命名的渐变_204-3);
      }

      .cls-7 {
        fill: url(#未命名的渐变_204-4);
      }

      .cls-8 {
        fill: url(#未命名的渐变_217-2);
      }

      .cls-9 {
        fill: url(#未命名的渐变_218-2);
      }

      .cls-10 {
        fill: url(#未命名的渐变_111-2);
      }

      .cls-11 {
        fill: url(#未命名的渐变_204-5);
      }

      .cls-12 {
        fill: url(#未命名的渐变_204-6);
      }

      .cls-13 {
        fill: url(#未命名的渐变_204-7);
      }

      .cls-14 {
        fill: url(#未命名的渐变_217-3);
      }

      .cls-15 {
        fill: url(#未命名的渐变_218-3);
      }

      .cls-16 {
        fill: url(#未命名的渐变_111-3);
      }

      .cls-17 {
        fill: url(#未命名的渐变_204-8);
      }

      .cls-18 {
        fill: url(#未命名的渐变_204-9);
      }
    </style>
    <linearGradient id="未命名的渐变_204" data-name="未命名的渐变 204" x1="29.19" y1="27.42" x2="11.51" y2="53.96" gradientUnits="userSpaceOnUse">
      <stop offset="0" stop-color="#03e7f5"/>
      <stop offset="0.11" stop-color="#03d5f4" stop-opacity="0.9"/>
      <stop offset="0.55" stop-color="#0191f1" stop-opacity="0.53"/>
      <stop offset="0.86" stop-color="#0066f0" stop-opacity="0.29"/>
      <stop offset="1" stop-color="#0055ef" stop-opacity="0.2"/>
    </linearGradient>
    <linearGradient id="未命名的渐变_217" data-name="未命名的渐变 217" x1="23.24" y1="45.04" x2="41.86" y2="86.05" gradientUnits="userSpaceOnUse">
      <stop offset="0.05" stop-color="#03e7f5"/>
      <stop offset="0.16" stop-color="#03d5f4" stop-opacity="0.9"/>
      <stop offset="0.57" stop-color="#0191f1" stop-opacity="0.53"/>
      <stop offset="0.86" stop-color="#0066f0" stop-opacity="0.29"/>
      <stop offset="1" stop-color="#0055ef" stop-opacity="0.2"/>
    </linearGradient>
    <linearGradient id="未命名的渐变_218" data-name="未命名的渐变 218" x1="16.5" y1="44.85" x2="4.71" y2="71.57" gradientUnits="userSpaceOnUse">
      <stop offset="0.14" stop-color="#03e7f5"/>
      <stop offset="0.24" stop-color="#03d5f4" stop-opacity="0.9"/>
      <stop offset="0.61" stop-color="#0191f1" stop-opacity="0.53"/>
      <stop offset="0.88" stop-color="#0066f0" stop-opacity="0.29"/>
      <stop offset="1" stop-color="#0055ef" stop-opacity="0.2"/>
    </linearGradient>
    <linearGradient id="未命名的渐变_111" data-name="未命名的渐变 111" x1="19.88" y1="84.58" x2="19.88" y2="60.74" gradientUnits="userSpaceOnUse">
      <stop offset="0" stop-color="#97adec"/>
      <stop offset="0.19" stop-color="#7dafed" stop-opacity="0.79"/>
      <stop offset="0.59" stop-color="#48b5ef" stop-opacity="0.37"/>
      <stop offset="0.87" stop-color="#26b8f0" stop-opacity="0.1"/>
      <stop offset="1" stop-color="#19b9f0" stop-opacity="0"/>
    </linearGradient>
    <linearGradient id="未命名的渐变_204-2" x1="18.77" y1="76.53" x2="-8.11" y2="62.22" xlink:href="#未命名的渐变_204"/>
    <linearGradient id="未命名的渐变_204-3" x1="-1921.46" y1="76.24" x2="-1948.51" y2="61.84" gradientTransform="matrix(-1, 0, 0, 1, -1900.16, 0)" xlink:href="#未命名的渐变_204"/>
    <linearGradient id="未命名的渐变_204-4" x1="227.29" y1="-1.22" x2="216.99" y2="14.23" xlink:href="#未命名的渐变_204"/>
    <linearGradient id="未命名的渐变_217-2" x1="223.82" y1="9.04" x2="234.66" y2="32.91" xlink:href="#未命名的渐变_217"/>
    <linearGradient id="未命名的渐变_218-2" x1="219.9" y1="8.92" x2="213.03" y2="24.49" xlink:href="#未命名的渐变_218"/>
    <linearGradient id="未命名的渐变_111-2" x1="221.86" y1="32.06" x2="221.86" y2="18.18" xlink:href="#未命名的渐变_111"/>
    <linearGradient id="未命名的渐变_204-5" x1="221.22" y1="27.37" x2="205.57" y2="19.04" xlink:href="#未命名的渐变_204"/>
    <linearGradient id="未命名的渐变_204-6" x1="-2122.85" y1="27.2" x2="-2138.6" y2="18.82" gradientTransform="matrix(-1, 0, 0, 1, -1900.16, 0)" xlink:href="#未命名的渐变_204"/>
    <linearGradient id="未命名的渐变_204-7" x1="260.84" y1="30.65" x2="243.81" y2="56.19" xlink:href="#未命名的渐变_204"/>
    <linearGradient id="未命名的渐变_217-3" x1="255.11" y1="47.61" x2="273.03" y2="87.08" xlink:href="#未命名的渐变_217"/>
    <linearGradient id="未命名的渐变_218-3" x1="248.62" y1="47.42" x2="237.27" y2="73.15" xlink:href="#未命名的渐变_218"/>
    <linearGradient id="未命名的渐变_111-3" x1="251.87" y1="85.67" x2="251.87" y2="62.72" xlink:href="#未命名的渐变_111"/>
    <linearGradient id="未命名的渐变_204-8" x1="250.81" y1="77.92" x2="224.93" y2="64.15" xlink:href="#未命名的渐变_204"/>
    <linearGradient id="未命名的渐变_204-9" x1="-2153.4" y1="77.64" x2="-2179.43" y2="63.78" gradientTransform="matrix(-1, 0, 0, 1, -1900.16, 0)" xlink:href="#未命名的渐变_204"/>
  </defs>
  <g id="图层_2" data-name="图层 2">
    <g id="图层_1-2" data-name="图层 1">
      <g>
        <g>
          <polygon class="cls-1" points="0 41.6 19.83 29.52 39.76 41.19 19.88 53.17 0 41.6"/>
          <polygon class="cls-2" points="19.88 53.18 19.88 77.84 39.76 67.07 39.76 41.2 19.88 53.18"/>
          <polygon class="cls-3" points="0 41.6 0 67.37 19.88 77.84 19.88 53.18 0 41.6"/>
          <polygon class="cls-4" points="0 67.36 19.83 56.83 39.76 66.96 19.88 78.94 0 67.36"/>
          <polygon class="cls-5" points="0.06 64.99 0 67.37 19.94 78.73 19.94 76.56 0.06 64.99"/>
          <polygon class="cls-6" points="39.79 64.63 39.85 67.01 19.94 78.73 19.94 76.56 39.79 64.63"/>
        </g>
        <g>
          <polygon class="cls-7" points="210.29 7.03 221.83 0 233.44 6.8 221.86 13.77 210.29 7.03"/>
          <polygon class="cls-8" points="221.86 13.78 221.86 28.13 233.44 21.86 233.44 6.8 221.86 13.78"/>
          <polygon class="cls-9" points="210.29 7.04 210.29 22.04 221.86 28.13 221.86 13.78 210.29 7.04"/>
          <polygon class="cls-10" points="210.29 22.04 221.83 15.9 233.44 21.8 221.86 28.77 210.29 22.04"/>
          <polygon class="cls-11" points="210.33 20.65 210.29 22.04 221.9 28.65 221.9 27.39 210.33 20.65"/>
          <polygon class="cls-12" points="233.46 20.44 233.49 21.83 221.9 28.65 221.9 27.39 233.46 20.44"/>
        </g>
        <g>
          <polygon class="cls-13" points="232.74 44.29 251.82 32.67 271 43.91 251.87 55.44 232.74 44.29"/>
          <polygon class="cls-14" points="251.87 55.44 251.87 79.18 271 68.81 271 43.91 251.87 55.44"/>
          <polygon class="cls-15" points="232.74 44.3 232.74 69.1 251.87 79.18 251.87 55.44 232.74 44.3"/>
          <polygon class="cls-16" points="232.74 69.1 251.82 58.95 271 68.71 251.87 80.24 232.74 69.1"/>
          <polygon class="cls-17" points="232.8 66.81 232.74 69.1 251.93 80.04 251.93 77.95 232.8 66.81"/>
          <polygon class="cls-18" points="271.04 66.46 271.1 68.75 251.93 80.04 251.93 77.95 271.04 66.46"/>
        </g>
      </g>
    </g>
  </g>
</svg>
