<svg width="115" height="99" viewBox="0 0 115 99" fill="none" xmlns="http://www.w3.org/2000/svg">
<path d="M26.3799 0.689941V82.0699C26.3799 74.8199 39.7299 68.95 56.2099 68.95C72.6899 68.95 86.0299 74.8199 86.0299 82.0699V0.689941H26.3799Z" fill="url(#paint0_linear_1413_58099)"/>
<path d="M0 28.38L8.36002 23.29L16.76 28.21L8.38 33.26L0 28.38Z" fill="url(#paint1_linear_1413_58099)"/>
<path d="M8.37988 33.26V43.66L16.7599 39.12V28.21L8.37988 33.26Z" fill="url(#paint2_linear_1413_58099)"/>
<path d="M0 28.3799V39.2499L8.38 43.6599V33.2599L0 28.3799Z" fill="url(#paint3_linear_1413_58099)"/>
<path d="M0 39.2401L8.36002 34.8L16.76 39.0701L8.38 44.1201L0 39.2401Z" fill="url(#paint4_linear_1413_58099)"/>
<path d="M0.0299988 38.24L0 39.25L8.41 44.04V43.12L0.0299988 38.24Z" fill="url(#paint5_linear_1413_58099)"/>
<path d="M16.7797 38.0898L16.7997 39.0898L8.40967 44.0399V43.1198L16.7797 38.0898Z" fill="url(#paint6_linear_1413_58099)"/>
<path d="M88.6602 13.8098L93.5202 10.8398L98.4202 13.7098L93.5402 16.6498L88.6602 13.8098Z" fill="url(#paint7_linear_1413_58099)"/>
<path d="M93.54 16.65V22.7L98.42 20.06V13.71L93.54 16.65Z" fill="url(#paint8_linear_1413_58099)"/>
<path d="M88.6602 13.8101V20.1301L93.5402 22.7001V16.6501L88.6602 13.8101Z" fill="url(#paint9_linear_1413_58099)"/>
<path d="M88.6602 20.1301L93.5202 17.55L98.4202 20.0401L93.5402 22.9701L88.6602 20.1301Z" fill="url(#paint10_linear_1413_58099)"/>
<path d="M88.6702 19.55L88.6602 20.1301L93.5502 22.9201V22.3901L88.6702 19.55Z" fill="url(#paint11_linear_1413_58099)"/>
<path d="M98.4198 19.46L98.4398 20.05L93.5498 22.92V22.39L98.4198 19.46Z" fill="url(#paint12_linear_1413_58099)"/>
<path d="M98.1201 29.5199L106.17 24.6199L114.25 29.3499L106.19 34.2099L98.1201 29.5199Z" fill="url(#paint13_linear_1413_58099)"/>
<path d="M106.19 34.2199V44.2199L114.25 39.8499V29.3599L106.19 34.2199Z" fill="url(#paint14_linear_1413_58099)"/>
<path d="M98.1201 29.52V39.98L106.19 44.22V34.22L98.1201 29.52Z" fill="url(#paint15_linear_1413_58099)"/>
<path d="M98.1201 39.9699L106.17 35.7L114.25 39.8099L106.19 44.67L98.1201 39.9699Z" fill="url(#paint16_linear_1413_58099)"/>
<path d="M98.1501 39.01L98.1201 39.98L106.21 44.59V43.71L98.1501 39.01Z" fill="url(#paint17_linear_1413_58099)"/>
<path d="M114.27 38.8599L114.29 39.8299L106.21 44.5899V43.7099L114.27 38.8599Z" fill="url(#paint18_linear_1413_58099)"/>
<path d="M58.1198 61.5398C83.1198 61.8098 91.2398 70.8998 93.3698 74.2398C93.4617 74.381 93.5213 74.5408 93.5441 74.7077C93.5669 74.8746 93.5524 75.0444 93.5018 75.2051C93.4511 75.3657 93.3654 75.5131 93.251 75.6367C93.1365 75.7603 92.9961 75.857 92.8398 75.9198L91.9098 76.2998L92.9698 75.8698L92.8398 75.9198C92.5931 76.024 92.3176 76.038 92.0616 75.9594C91.8056 75.8808 91.5855 75.7145 91.4398 75.4898C89.9172 73.2955 87.9345 71.4595 85.6298 70.1098C77.6298 65.1098 66.4698 63.9198 58.0898 63.8298C57.7909 63.8246 57.5061 63.7022 57.2966 63.489C57.0871 63.2757 56.9697 62.9887 56.9698 62.6898C56.9684 62.5384 56.9973 62.3883 57.0546 62.2482C57.1119 62.1081 57.1966 61.9807 57.3036 61.8737C57.4107 61.7666 57.538 61.682 57.6781 61.6247C57.8182 61.5673 57.9684 61.5385 58.1198 61.5398Z" fill="url(#paint19_linear_1413_58099)"/>
<path d="M56.22 92.9099C72.7499 92.9099 86.15 87.5463 86.15 80.9299C86.15 74.3136 72.7499 68.95 56.22 68.95C39.6901 68.95 26.29 74.3136 26.29 80.9299C26.29 87.5463 39.6901 92.9099 56.22 92.9099Z" fill="url(#paint20_linear_1413_58099)"/>
<path d="M56.22 88.2501C72.7499 88.2501 86.15 83.3968 86.15 77.41C86.15 71.4233 72.7499 66.5701 56.22 66.5701C39.6901 66.5701 26.29 71.4233 26.29 77.41C26.29 83.3968 39.6901 88.2501 56.22 88.2501Z" fill="url(#paint21_linear_1413_58099)"/>
<path d="M56.22 65.0001C72.7499 65.0001 86.15 60.1468 86.15 54.1601C86.15 48.1733 72.7499 43.3201 56.22 43.3201C39.6901 43.3201 26.29 48.1733 26.29 54.1601C26.29 60.1468 39.6901 65.0001 56.22 65.0001Z" fill="url(#paint22_linear_1413_58099)"/>
<path d="M56.22 60.8499C72.7499 60.8499 86.15 55.9967 86.15 50.0099C86.15 44.0232 72.7499 39.1699 56.22 39.1699C39.6901 39.1699 26.29 44.0232 26.29 50.0099C26.29 55.9967 39.6901 60.8499 56.22 60.8499Z" fill="url(#paint23_linear_1413_58099)"/>
<path d="M56.2197 70.6101C30.8797 70.6101 10.2197 63.0901 10.2197 53.8401C10.2197 44.5901 30.8397 37.0701 56.2197 37.0701C81.5997 37.0701 102.22 44.5901 102.22 53.8401C102.22 63.0901 81.5497 70.6101 56.2197 70.6101ZM56.2197 37.4601C31.0897 37.4601 10.6497 44.8101 10.6497 53.8401C10.6497 62.8701 31.0897 70.2201 56.2197 70.2201C81.3497 70.2201 101.78 62.8701 101.78 53.8401C101.78 44.8101 81.3797 37.4601 56.2197 37.4601Z" fill="url(#paint24_linear_1413_58099)"/>
<path d="M56.2197 45.1199C37.2197 45.1199 21.6997 39.4699 21.6997 32.5199C21.6997 25.5699 37.1797 19.9299 56.2197 19.9299C75.2597 19.9299 90.7297 25.5899 90.7297 32.5299C90.7297 39.4699 75.2497 45.1199 56.2197 45.1199ZM56.2197 20.2199C37.3397 20.2199 21.9897 25.7399 21.9897 32.5199C21.9897 39.2999 37.3797 44.8299 56.2197 44.8299C75.0597 44.8299 90.4397 39.3099 90.4397 32.5199C90.4397 25.7299 75.0897 20.2199 56.2197 20.2199Z" fill="url(#paint25_linear_1413_58099)"/>
<path d="M52.9399 98.8201C27.9399 98.5501 19.8099 89.4601 17.6799 86.1201C17.588 85.9789 17.5284 85.8191 17.5056 85.6522C17.4828 85.4853 17.4973 85.3155 17.5479 85.1548C17.5986 84.9942 17.6843 84.8467 17.7987 84.7232C17.9132 84.5996 18.0536 84.5029 18.2099 84.44L19.1399 84.0601L18.1399 84.4901L18.2599 84.44C18.5066 84.3359 18.7821 84.3219 19.0381 84.4005C19.2941 84.4791 19.5142 84.6454 19.6599 84.8701C21.187 87.064 23.1729 88.8998 25.4799 90.2501C33.4299 95.2501 44.6299 96.4401 53.0099 96.5301C53.3105 96.5327 53.5979 96.654 53.8096 96.8675C54.0212 97.081 54.1399 97.3694 54.1399 97.6701C54.1401 97.8254 54.1088 97.9791 54.0479 98.122C53.987 98.2649 53.8978 98.394 53.7856 98.5014C53.6735 98.6089 53.5407 98.6925 53.3954 98.7473C53.25 98.8021 53.0951 98.8268 52.9399 98.8201Z" fill="url(#paint26_linear_1413_58099)"/>
<g opacity="0.39">
<path d="M63.5398 81.72C63.2026 81.4325 62.7819 81.2607 62.3398 81.2301C61.7694 81.1699 61.193 81.2488 60.6598 81.46C58.9817 82.2305 57.123 82.5212 55.2898 82.3C54.5093 82.2808 53.7413 82.1002 53.034 81.7698C52.3267 81.4394 51.6954 80.9662 51.1798 80.38C50.8415 80.0395 50.3891 79.8364 49.9098 79.8101C49.3894 79.7542 48.8632 79.8157 48.3698 79.99C47.3198 80.37 46.8698 81.15 47.3698 81.74C48.8598 83.5 50.9098 84.4401 54.0098 84.7901C56.987 85.1503 60.0063 84.7012 62.7498 83.49C63.7598 83.07 64.1098 82.28 63.5398 81.72Z" fill="url(#paint27_linear_1413_58099)"/>
<path d="M65.655 79.2081C66.9718 79.0567 67.9667 78.3023 67.8771 77.5232C67.7875 76.7441 66.6474 76.2353 65.3306 76.3867C64.0138 76.5381 63.0189 77.2925 63.1085 78.0716C63.1981 78.8507 64.3382 79.3595 65.655 79.2081Z" fill="url(#paint28_linear_1413_58099)"/>
<path d="M48.9296 77.18C48.0596 76.66 48.1495 75.75 49.1395 75.18L54.9596 71.69C55.4683 71.3956 56.0411 71.2299 56.6284 71.2073C57.2157 71.1846 57.7997 71.3057 58.3295 71.56C59.1995 72.08 59.0996 72.99 58.1196 73.56L52.2996 77.05C51.7911 77.3452 51.2182 77.5114 50.6307 77.534C50.0433 77.5567 49.4592 77.4351 48.9296 77.18Z" fill="url(#paint29_linear_1413_58099)"/>
<path d="M56.2998 78.0201C55.4198 77.5001 55.5198 76.5901 56.5098 76.0201L62.3198 72.5301C62.8285 72.2357 63.4014 72.07 63.9887 72.0474C64.576 72.0247 65.1599 72.1458 65.6898 72.4001C66.5598 72.9301 66.4698 73.8301 65.4798 74.4001L59.6598 77.9301C59.1499 78.219 58.5769 78.3782 57.991 78.3939C57.4052 78.4096 56.8244 78.2812 56.2998 78.0201Z" fill="url(#paint30_linear_1413_58099)"/>
</g>
<defs>
<linearGradient id="paint0_linear_1413_58099" x1="56.2199" y1="103.6" x2="56.2199" y2="-7.78006" gradientUnits="userSpaceOnUse">
<stop stop-color="#03E6F4"/>
<stop offset="0.18" stop-color="#02C4F3" stop-opacity="0.77"/>
<stop offset="0.53" stop-color="#0189F0" stop-opacity="0.36"/>
<stop offset="0.77" stop-color="#0064EF" stop-opacity="0.1"/>
<stop offset="0.88" stop-color="#0055EE" stop-opacity="0"/>
</linearGradient>
<linearGradient id="paint1_linear_1413_58099" x1="12.31" y1="22.4" x2="4.85001" y2="33.59" gradientUnits="userSpaceOnUse">
<stop stop-color="#03E6F4"/>
<stop offset="0.11" stop-color="#03D5F3" stop-opacity="0.9"/>
<stop offset="0.55" stop-color="#0191F0" stop-opacity="0.53"/>
<stop offset="0.86" stop-color="#0066EF" stop-opacity="0.29"/>
<stop offset="1" stop-color="#0055EE" stop-opacity="0.2"/>
</linearGradient>
<linearGradient id="paint2_linear_1413_58099" x1="9.79988" y1="29.83" x2="17.6499" y2="47.12" gradientUnits="userSpaceOnUse">
<stop offset="0.05" stop-color="#03E6F4"/>
<stop offset="0.15" stop-color="#03D5F3" stop-opacity="0.9"/>
<stop offset="0.57" stop-color="#0191F0" stop-opacity="0.53"/>
<stop offset="0.86" stop-color="#0066EF" stop-opacity="0.29"/>
<stop offset="1" stop-color="#0055EE" stop-opacity="0.2"/>
</linearGradient>
<linearGradient id="paint3_linear_1413_58099" x1="6.96" y1="29.7499" x2="1.99001" y2="41.0199" gradientUnits="userSpaceOnUse">
<stop offset="0.14" stop-color="#03E6F4"/>
<stop offset="0.23" stop-color="#03D5F3" stop-opacity="0.9"/>
<stop offset="0.61" stop-color="#0191F0" stop-opacity="0.53"/>
<stop offset="0.88" stop-color="#0066EF" stop-opacity="0.29"/>
<stop offset="1" stop-color="#0055EE" stop-opacity="0.2"/>
</linearGradient>
<linearGradient id="paint4_linear_1413_58099" x1="8.38" y1="46.5001" x2="8.38" y2="36.45" gradientUnits="userSpaceOnUse">
<stop stop-color="#96ACEB"/>
<stop offset="0.18" stop-color="#7DAEEC" stop-opacity="0.8"/>
<stop offset="0.59" stop-color="#48B4EE" stop-opacity="0.37"/>
<stop offset="0.87" stop-color="#26B7EF" stop-opacity="0.1"/>
<stop offset="1" stop-color="#19B8EF" stop-opacity="0"/>
</linearGradient>
<linearGradient id="paint5_linear_1413_58099" x1="7.92" y1="43.11" x2="-3.42002" y2="37.07" gradientUnits="userSpaceOnUse">
<stop stop-color="#03E6F4"/>
<stop offset="0.11" stop-color="#03D5F3" stop-opacity="0.9"/>
<stop offset="0.55" stop-color="#0191F0" stop-opacity="0.53"/>
<stop offset="0.86" stop-color="#0066EF" stop-opacity="0.29"/>
<stop offset="1" stop-color="#0055EE" stop-opacity="0.2"/>
</linearGradient>
<linearGradient id="paint6_linear_1413_58099" x1="8.97967" y1="42.9899" x2="20.3897" y2="36.9198" gradientUnits="userSpaceOnUse">
<stop stop-color="#03E6F4"/>
<stop offset="0.11" stop-color="#03D5F3" stop-opacity="0.9"/>
<stop offset="0.55" stop-color="#0191F0" stop-opacity="0.53"/>
<stop offset="0.86" stop-color="#0066EF" stop-opacity="0.29"/>
<stop offset="1" stop-color="#0055EE" stop-opacity="0.2"/>
</linearGradient>
<linearGradient id="paint7_linear_1413_58099" x1="95.8202" y1="10.3298" x2="91.4802" y2="16.8398" gradientUnits="userSpaceOnUse">
<stop stop-color="#03E6F4"/>
<stop offset="0.11" stop-color="#03D5F3" stop-opacity="0.9"/>
<stop offset="0.55" stop-color="#0191F0" stop-opacity="0.53"/>
<stop offset="0.86" stop-color="#0066EF" stop-opacity="0.29"/>
<stop offset="1" stop-color="#0055EE" stop-opacity="0.2"/>
</linearGradient>
<linearGradient id="paint8_linear_1413_58099" x1="94.36" y1="14.65" x2="98.9301" y2="24.72" gradientUnits="userSpaceOnUse">
<stop offset="0.05" stop-color="#03E6F4"/>
<stop offset="0.15" stop-color="#03D5F3" stop-opacity="0.9"/>
<stop offset="0.57" stop-color="#0191F0" stop-opacity="0.53"/>
<stop offset="0.86" stop-color="#0066EF" stop-opacity="0.29"/>
<stop offset="1" stop-color="#0055EE" stop-opacity="0.2"/>
</linearGradient>
<linearGradient id="paint9_linear_1413_58099" x1="92.7102" y1="14.6101" x2="89.8102" y2="21.1701" gradientUnits="userSpaceOnUse">
<stop offset="0.14" stop-color="#03E6F4"/>
<stop offset="0.23" stop-color="#03D5F3" stop-opacity="0.9"/>
<stop offset="0.61" stop-color="#0191F0" stop-opacity="0.53"/>
<stop offset="0.88" stop-color="#0066EF" stop-opacity="0.29"/>
<stop offset="1" stop-color="#0055EE" stop-opacity="0.2"/>
</linearGradient>
<linearGradient id="paint10_linear_1413_58099" x1="93.5402" y1="24.3601" x2="93.5402" y2="18.5101" gradientUnits="userSpaceOnUse">
<stop stop-color="#96ACEB"/>
<stop offset="0.18" stop-color="#7DAEEC" stop-opacity="0.8"/>
<stop offset="0.59" stop-color="#48B4EE" stop-opacity="0.37"/>
<stop offset="0.87" stop-color="#26B7EF" stop-opacity="0.1"/>
<stop offset="1" stop-color="#19B8EF" stop-opacity="0"/>
</linearGradient>
<linearGradient id="paint11_linear_1413_58099" x1="93.2702" y1="22.3801" x2="86.6701" y2="18.8701" gradientUnits="userSpaceOnUse">
<stop stop-color="#03E6F4"/>
<stop offset="0.11" stop-color="#03D5F3" stop-opacity="0.9"/>
<stop offset="0.55" stop-color="#0191F0" stop-opacity="0.53"/>
<stop offset="0.86" stop-color="#0066EF" stop-opacity="0.29"/>
<stop offset="1" stop-color="#0055EE" stop-opacity="0.2"/>
</linearGradient>
<linearGradient id="paint12_linear_1413_58099" x1="93.8798" y1="22.31" x2="100.52" y2="18.78" gradientUnits="userSpaceOnUse">
<stop stop-color="#03E6F4"/>
<stop offset="0.11" stop-color="#03D5F3" stop-opacity="0.9"/>
<stop offset="0.55" stop-color="#0191F0" stop-opacity="0.53"/>
<stop offset="0.86" stop-color="#0066EF" stop-opacity="0.29"/>
<stop offset="1" stop-color="#0055EE" stop-opacity="0.2"/>
</linearGradient>
<linearGradient id="paint13_linear_1413_58099" x1="109.97" y1="23.7699" x2="102.79" y2="34.5299" gradientUnits="userSpaceOnUse">
<stop stop-color="#03E6F4"/>
<stop offset="0.11" stop-color="#03D5F3" stop-opacity="0.9"/>
<stop offset="0.55" stop-color="#0191F0" stop-opacity="0.53"/>
<stop offset="0.86" stop-color="#0066EF" stop-opacity="0.29"/>
<stop offset="1" stop-color="#0055EE" stop-opacity="0.2"/>
</linearGradient>
<linearGradient id="paint14_linear_1413_58099" x1="107.55" y1="30.9099" x2="115.11" y2="47.5599" gradientUnits="userSpaceOnUse">
<stop offset="0.05" stop-color="#03E6F4"/>
<stop offset="0.15" stop-color="#03D5F3" stop-opacity="0.9"/>
<stop offset="0.57" stop-color="#0191F0" stop-opacity="0.53"/>
<stop offset="0.86" stop-color="#0066EF" stop-opacity="0.29"/>
<stop offset="1" stop-color="#0055EE" stop-opacity="0.2"/>
</linearGradient>
<linearGradient id="paint15_linear_1413_58099" x1="104.82" y1="30.84" x2="100.03" y2="41.68" gradientUnits="userSpaceOnUse">
<stop offset="0.14" stop-color="#03E6F4"/>
<stop offset="0.23" stop-color="#03D5F3" stop-opacity="0.9"/>
<stop offset="0.61" stop-color="#0191F0" stop-opacity="0.53"/>
<stop offset="0.88" stop-color="#0066EF" stop-opacity="0.29"/>
<stop offset="1" stop-color="#0055EE" stop-opacity="0.2"/>
</linearGradient>
<linearGradient id="paint16_linear_1413_58099" x1="106.19" y1="46.96" x2="106.19" y2="37.29" gradientUnits="userSpaceOnUse">
<stop stop-color="#96ACEB"/>
<stop offset="0.18" stop-color="#7DAEEC" stop-opacity="0.8"/>
<stop offset="0.59" stop-color="#48B4EE" stop-opacity="0.37"/>
<stop offset="0.87" stop-color="#26B7EF" stop-opacity="0.1"/>
<stop offset="1" stop-color="#19B8EF" stop-opacity="0"/>
</linearGradient>
<linearGradient id="paint17_linear_1413_58099" x1="105.74" y1="43.69" x2="94.8301" y2="37.89" gradientUnits="userSpaceOnUse">
<stop stop-color="#03E6F4"/>
<stop offset="0.11" stop-color="#03D5F3" stop-opacity="0.9"/>
<stop offset="0.55" stop-color="#0191F0" stop-opacity="0.53"/>
<stop offset="0.86" stop-color="#0066EF" stop-opacity="0.29"/>
<stop offset="1" stop-color="#0055EE" stop-opacity="0.2"/>
</linearGradient>
<linearGradient id="paint18_linear_1413_58099" x1="106.76" y1="43.5799" x2="117.74" y2="37.7399" gradientUnits="userSpaceOnUse">
<stop stop-color="#03E6F4"/>
<stop offset="0.11" stop-color="#03D5F3" stop-opacity="0.9"/>
<stop offset="0.55" stop-color="#0191F0" stop-opacity="0.53"/>
<stop offset="0.86" stop-color="#0066EF" stop-opacity="0.29"/>
<stop offset="1" stop-color="#0055EE" stop-opacity="0.2"/>
</linearGradient>
<linearGradient id="paint19_linear_1413_58099" x1="96.4998" y1="74.5198" x2="56.0798" y2="59.6198" gradientUnits="userSpaceOnUse">
<stop stop-color="#03E6F4"/>
<stop offset="0.11" stop-color="#03D5F3" stop-opacity="0.9"/>
<stop offset="0.55" stop-color="#0191F0" stop-opacity="0.53"/>
<stop offset="0.86" stop-color="#0066EF" stop-opacity="0.29"/>
<stop offset="1" stop-color="#0055EE" stop-opacity="0.2"/>
</linearGradient>
<linearGradient id="paint20_linear_1413_58099" x1="56.22" y1="95.9199" x2="56.22" y2="67.17" gradientUnits="userSpaceOnUse">
<stop stop-color="#03E6F4"/>
<stop offset="0.11" stop-color="#03D5F3" stop-opacity="0.9"/>
<stop offset="0.55" stop-color="#0191F0" stop-opacity="0.53"/>
<stop offset="0.86" stop-color="#0066EF" stop-opacity="0.29"/>
<stop offset="1" stop-color="#0055EE" stop-opacity="0.2"/>
</linearGradient>
<linearGradient id="paint21_linear_1413_58099" x1="56.22" y1="65.0501" x2="56.22" y2="100.49" gradientUnits="userSpaceOnUse">
<stop stop-color="#03E6F4"/>
<stop offset="0.21" stop-color="#02C4F3" stop-opacity="0.77"/>
<stop offset="0.6" stop-color="#0189F0" stop-opacity="0.36"/>
<stop offset="0.87" stop-color="#0064EF" stop-opacity="0.1"/>
<stop offset="1" stop-color="#0055EE" stop-opacity="0"/>
</linearGradient>
<linearGradient id="paint22_linear_1413_58099" x1="56.22" y1="64.0901" x2="56.22" y2="44.6101" gradientUnits="userSpaceOnUse">
<stop stop-color="#03E6F4"/>
<stop offset="0.08" stop-color="#03D5F3" stop-opacity="0.9"/>
<stop offset="0.4" stop-color="#0191F0" stop-opacity="0.53"/>
<stop offset="0.62" stop-color="#0066EF" stop-opacity="0.29"/>
<stop offset="0.73" stop-color="#0055EE" stop-opacity="0.2"/>
</linearGradient>
<linearGradient id="paint23_linear_1413_58099" x1="56.22" y1="62.6599" x2="56.22" y2="34.7999" gradientUnits="userSpaceOnUse">
<stop stop-color="#03E6F4"/>
<stop offset="0.11" stop-color="#03D5F3" stop-opacity="0.9"/>
<stop offset="0.55" stop-color="#0191F0" stop-opacity="0.53"/>
<stop offset="0.86" stop-color="#0066EF" stop-opacity="0.29"/>
<stop offset="1" stop-color="#0055EE" stop-opacity="0.2"/>
</linearGradient>
<linearGradient id="paint24_linear_1413_58099" x1="56.2197" y1="74.2001" x2="56.2197" y2="34.8401" gradientUnits="userSpaceOnUse">
<stop stop-color="#03E6F4"/>
<stop offset="0.11" stop-color="#03D5F3" stop-opacity="0.9"/>
<stop offset="0.55" stop-color="#0191F0" stop-opacity="0.53"/>
<stop offset="0.86" stop-color="#0066EF" stop-opacity="0.29"/>
<stop offset="1" stop-color="#0055EE" stop-opacity="0.2"/>
</linearGradient>
<linearGradient id="paint25_linear_1413_58099" x1="56.2197" y1="47.8199" x2="56.2197" y2="18.2499" gradientUnits="userSpaceOnUse">
<stop stop-color="#03E6F4"/>
<stop offset="0.11" stop-color="#03D5F3" stop-opacity="0.9"/>
<stop offset="0.55" stop-color="#0191F0" stop-opacity="0.53"/>
<stop offset="0.86" stop-color="#0066EF" stop-opacity="0.29"/>
<stop offset="1" stop-color="#0055EE" stop-opacity="0.2"/>
</linearGradient>
<linearGradient id="paint26_linear_1413_58099" x1="56.7799" y1="99.6601" x2="19.9599" y2="88.1701" gradientUnits="userSpaceOnUse">
<stop stop-color="#03E6F4"/>
<stop offset="0.11" stop-color="#03D5F3" stop-opacity="0.9"/>
<stop offset="0.55" stop-color="#0191F0" stop-opacity="0.53"/>
<stop offset="0.86" stop-color="#0066EF" stop-opacity="0.29"/>
<stop offset="1" stop-color="#0055EE" stop-opacity="0.2"/>
</linearGradient>
<linearGradient id="paint27_linear_1413_58099" x1="50.4576" y1="85.9185" x2="46.6144" y2="75.8369" gradientUnits="userSpaceOnUse">
<stop stop-color="#5AC8FF"/>
<stop offset="1" stop-color="#00E8E4"/>
</linearGradient>
<linearGradient id="paint28_linear_1413_58099" x1="61.8735" y1="82.0652" x2="58.3703" y2="72.8337" gradientUnits="userSpaceOnUse">
<stop stop-color="#5AC8FF"/>
<stop offset="1" stop-color="#00E8E4"/>
</linearGradient>
<linearGradient id="paint29_linear_1413_58099" x1="66.3134" y1="79.2237" x2="64.8942" y2="66.0033" gradientUnits="userSpaceOnUse">
<stop stop-color="#5AC8FF"/>
<stop offset="1" stop-color="#00E8E4"/>
</linearGradient>
<linearGradient id="paint30_linear_1413_58099" x1="70.2112" y1="75.8337" x2="68.7921" y2="62.6133" gradientUnits="userSpaceOnUse">
<stop stop-color="#5AC8FF"/>
<stop offset="1" stop-color="#00E8E4"/>
</linearGradient>
</defs>
</svg>
