<svg width="74" height="93" viewBox="0 0 74 93" fill="none" xmlns="http://www.w3.org/2000/svg">
<path opacity="0.81" d="M49.7197 8.12988H25.2197V66.2499H49.7197V8.12988Z" fill="url(#paint0_linear_1413_58140)"/>
<path d="M72.2299 92.72L63.16 80.72L12.02 80.4399L2.70996 92.72" fill="url(#paint1_linear_1413_58140)"/>
<path d="M72.2301 87.6599L60.7101 70.9699L60.5801 60.6199L72.2301 74.4899V87.6599Z" fill="url(#paint2_linear_1413_58140)"/>
<path d="M2.70996 87.6599L14.2299 70.9699L14.36 60.6199L2.70996 74.4899V87.6599Z" fill="url(#paint3_linear_1413_58140)"/>
<path d="M72.2299 66.3099L62.7999 52.52L62.6699 45.2L72.2299 56.9999V66.3099Z" fill="url(#paint4_linear_1413_58140)"/>
<path d="M2.70996 66.3099L12.02 52.79L12.15 45.47L2.70996 56.9999V66.3099Z" fill="url(#paint5_linear_1413_58140)"/>
<path d="M72.2299 87.66L63.16 74.4999L12.02 74.1899L2.70996 87.66" fill="url(#paint6_linear_1413_58140)"/>
<path d="M72.2299 66.25L63.16 53.1L12.02 52.79L2.70996 66.25" fill="url(#paint7_linear_1413_58140)"/>
<path d="M72.2299 57.01H2.70996V66.25H72.2299V57.01Z" fill="url(#paint8_linear_1413_58140)"/>
<path d="M2.70996 74.49L9.25995 66.79H65.77L72.2299 74.49" fill="url(#paint9_linear_1413_58140)"/>
<path d="M2.70996 78.3799L9.25995 70.6899H65.77L72.2299 78.3799" fill="url(#paint10_linear_1413_58140)"/>
<path d="M1 80.4399V90.1299H73.75V80.4399" stroke="url(#paint11_linear_1413_58140)" stroke-width="0.34" stroke-miterlimit="10"/>
<path d="M1 58.05V67.7401H73.75V58.05" stroke="url(#paint12_linear_1413_58140)" stroke-width="0.34" stroke-miterlimit="10"/>
<path opacity="0.81" d="M64.5999 8.12988H10.3398V66.2499H64.5999V8.12988Z" fill="url(#paint13_linear_1413_58140)"/>
<path style="mix-blend-mode:hard-light" opacity="0.81" d="M57.7902 8.12988H17.1401V66.2499H57.7902V8.12988Z" fill="url(#paint14_linear_1413_58140)"/>
<path d="M37.3401 23.6899C43.846 23.6899 49.1201 18.4158 49.1201 11.9099C49.1201 5.404 43.846 0.129883 37.3401 0.129883C30.8341 0.129883 25.5601 5.404 25.5601 11.9099C25.5601 18.4158 30.8341 23.6899 37.3401 23.6899Z" fill="url(#paint15_linear_1413_58140)"/>
<path d="M37.3399 21.14C42.4375 21.14 46.5699 17.0076 46.5699 11.91C46.5699 6.81239 42.4375 2.67993 37.3399 2.67993C32.2423 2.67993 28.1099 6.81239 28.1099 11.91C28.1099 17.0076 32.2423 21.14 37.3399 21.14Z" fill="url(#paint16_linear_1413_58140)"/>
<path d="M17.1998 45.0799C20.4362 45.0799 23.0598 42.4563 23.0598 39.2199C23.0598 35.9835 20.4362 33.3599 17.1998 33.3599C13.9634 33.3599 11.3398 35.9835 11.3398 39.2199C11.3398 42.4563 13.9634 45.0799 17.1998 45.0799Z" fill="url(#paint17_linear_1413_58140)"/>
<path d="M17.1898 46.3801C15.7737 46.3801 14.3894 45.9602 13.2119 45.1734C12.0345 44.3867 11.1167 43.2684 10.5748 41.9601C10.0329 40.6518 9.8911 39.2121 10.1674 37.8232C10.4436 36.4343 11.1256 35.1585 12.1269 34.1572C13.1282 33.1558 14.404 32.4739 15.7929 32.1976C17.1819 31.9214 18.6215 32.0632 19.9298 32.6051C21.2381 33.147 22.3564 34.0647 23.1431 35.2422C23.9299 36.4197 24.3498 37.804 24.3498 39.2201C24.3498 41.119 23.5954 42.9402 22.2527 44.283C20.9099 45.6257 19.0887 46.3801 17.1898 46.3801ZM17.1898 32.2501C15.8053 32.2501 14.4519 32.6606 13.3008 33.4298C12.1496 34.199 11.2524 35.2922 10.7226 36.5713C10.1928 37.8504 10.0542 39.2578 10.3243 40.6157C10.5944 41.9736 11.2611 43.2208 12.24 44.1998C13.219 45.1788 14.4663 45.8455 15.8242 46.1156C17.182 46.3857 18.5895 46.247 19.8686 45.7172C21.1477 45.1874 22.2409 44.2902 23.0101 43.1391C23.7792 41.9879 24.1898 40.6345 24.1898 39.2501C24.1898 37.3936 23.4523 35.6131 22.1395 34.3003C20.8268 32.9876 19.0463 32.2501 17.1898 32.2501Z" fill="url(#paint18_linear_1413_58140)"/>
<path d="M17.1999 43.8099C19.7348 43.8099 21.7899 41.7549 21.7899 39.2199C21.7899 36.6849 19.7348 34.6299 17.1999 34.6299C14.6649 34.6299 12.6099 36.6849 12.6099 39.2199C12.6099 41.7549 14.6649 43.8099 17.1999 43.8099Z" fill="url(#paint19_linear_1413_58140)"/>
<path d="M59.5698 43.1C63.607 43.1 66.8798 39.8272 66.8798 35.79C66.8798 31.7528 63.607 28.48 59.5698 28.48C55.5326 28.48 52.2598 31.7528 52.2598 35.79C52.2598 39.8272 55.5326 43.1 59.5698 43.1Z" fill="url(#paint20_linear_1413_58140)"/>
<path d="M59.5699 44.7199C57.8033 44.7218 56.0758 44.1998 54.6059 43.2197C53.1361 42.2397 51.9899 40.8457 51.3125 39.2142C50.6351 37.5826 50.4568 35.7868 50.8003 34.0538C51.1437 32.3209 51.9934 30.7288 53.2419 29.479C54.4904 28.2291 56.0815 27.3776 57.814 27.0322C59.5466 26.6868 61.3426 26.8631 62.9749 27.5387C64.6073 28.2143 66.0025 29.3588 66.9842 30.8276C67.9659 32.2963 68.4899 34.0233 68.4899 35.7899C68.4873 38.1557 67.5469 40.424 65.875 42.0979C64.203 43.7717 61.9357 44.7146 59.5699 44.7199ZM59.5699 27.0899C57.8488 27.0879 56.1657 27.5965 54.7337 28.5512C53.3017 29.506 52.185 30.8641 51.525 32.4536C50.865 34.0431 50.6913 35.7927 51.0258 37.481C51.3604 39.1693 52.1882 40.7204 53.4045 41.9382C54.6209 43.1559 56.171 43.9854 57.8589 44.3219C59.5468 44.6584 61.2966 44.4868 62.8869 43.8286C64.4772 43.1704 65.8366 42.0553 66.793 40.6244C67.7494 39.1935 68.2599 37.511 68.2599 35.7899C68.2572 33.485 67.3412 31.2752 65.7123 29.6445C64.0835 28.0138 61.8747 27.0952 59.5699 27.0899Z" fill="url(#paint21_linear_1413_58140)"/>
<path d="M59.5699 41.5201C62.7344 41.5201 65.2998 38.9547 65.2998 35.7901C65.2998 32.6255 62.7344 30.0601 59.5699 30.0601C56.4053 30.0601 53.8398 32.6255 53.8398 35.7901C53.8398 38.9547 56.4053 41.5201 59.5699 41.5201Z" fill="url(#paint22_linear_1413_58140)"/>
<g opacity="0.47">
<path d="M40.7696 13.9002C40.5996 13.7388 40.374 13.6493 40.1396 13.6502C39.8828 13.6591 39.6393 13.7665 39.4596 13.9502C39.202 14.2732 38.8726 14.5317 38.4977 14.7052C38.1228 14.8788 37.7126 14.9627 37.2996 14.9502C36.8774 14.9667 36.4572 14.8849 36.072 14.7114C35.6867 14.5379 35.347 14.2773 35.0796 13.9502C34.8999 13.7665 34.6564 13.6591 34.3996 13.6502C34.2173 13.6491 34.0388 13.7017 33.8861 13.8013C33.7334 13.901 33.6134 14.0432 33.541 14.2105C33.4685 14.3778 33.4468 14.5627 33.4786 14.7422C33.5103 14.9217 33.5942 15.0879 33.7196 15.2202C34.1583 15.7387 34.7076 16.1525 35.3271 16.4311C35.9465 16.7097 36.6205 16.8461 37.2996 16.8302C37.9708 16.8421 38.6362 16.7037 39.247 16.4252C39.8578 16.1466 40.3986 15.7348 40.8296 15.2202C40.9129 15.1298 40.9774 15.0239 41.0195 14.9085C41.0616 14.793 41.0804 14.6704 41.0748 14.5477C41.0692 14.4249 41.0394 14.3045 40.987 14.1934C40.9346 14.0822 40.8607 13.9826 40.7696 13.9002Z" fill="url(#paint23_linear_1413_58140)"/>
<path d="M40.7595 12.04C41.3394 12.04 41.8095 11.5698 41.8095 10.9899C41.8095 10.41 41.3394 9.93994 40.7595 9.93994C40.1796 9.93994 39.7095 10.41 39.7095 10.9899C39.7095 11.5698 40.1796 12.04 40.7595 12.04Z" fill="url(#paint24_linear_1413_58140)"/>
<path d="M36.6002 8.57922C36.899 8.0822 36.7382 7.43711 36.2412 7.13835C35.7442 6.8396 35.0991 7.00031 34.8004 7.49733L33.0384 10.4285C32.7397 10.9256 32.9004 11.5707 33.3974 11.8694C33.8944 12.1682 34.5395 12.0075 34.8383 11.5104L36.6002 8.57922Z" fill="url(#paint25_linear_1413_58140)"/>
<path d="M40.0128 8.57606C40.3116 8.07904 40.1509 7.43394 39.6538 7.13519C39.1568 6.83643 38.5117 6.99714 38.213 7.49416L36.451 10.4254C36.1523 10.9224 36.313 11.5675 36.81 11.8662C37.307 12.165 37.9521 12.0043 38.2509 11.5073L40.0128 8.57606Z" fill="url(#paint26_linear_1413_58140)"/>
</g>
<defs>
<linearGradient id="paint0_linear_1413_58140" x1="37.4697" y1="68.3899" x2="37.4697" y2="14.3899" gradientUnits="userSpaceOnUse">
<stop stop-color="#03E6F4"/>
<stop offset="0.21" stop-color="#02C4F3" stop-opacity="0.77"/>
<stop offset="0.6" stop-color="#0189F0" stop-opacity="0.36"/>
<stop offset="0.87" stop-color="#0064EF" stop-opacity="0.1"/>
<stop offset="1" stop-color="#0055EE" stop-opacity="0"/>
</linearGradient>
<linearGradient id="paint1_linear_1413_58140" x1="37.47" y1="93.48" x2="37.47" y2="85.6" gradientUnits="userSpaceOnUse">
<stop stop-color="#03E6F4"/>
<stop offset="0.21" stop-color="#02C4F3" stop-opacity="0.77"/>
<stop offset="0.6" stop-color="#0189F0" stop-opacity="0.36"/>
<stop offset="0.87" stop-color="#0064EF" stop-opacity="0.1"/>
<stop offset="1" stop-color="#0055EE" stop-opacity="0"/>
</linearGradient>
<linearGradient id="paint2_linear_1413_58140" x1="72.9101" y1="81.9799" x2="60.75" y2="65.6899" gradientUnits="userSpaceOnUse">
<stop stop-color="#03E6F4"/>
<stop offset="0.21" stop-color="#02C4F3" stop-opacity="0.77"/>
<stop offset="0.6" stop-color="#0189F0" stop-opacity="0.36"/>
<stop offset="0.87" stop-color="#0064EF" stop-opacity="0.1"/>
<stop offset="1" stop-color="#0055EE" stop-opacity="0"/>
</linearGradient>
<linearGradient id="paint3_linear_1413_58140" x1="2.02996" y1="81.9799" x2="14.19" y2="65.6999" gradientUnits="userSpaceOnUse">
<stop stop-color="#03E6F4"/>
<stop offset="0.21" stop-color="#02C4F3" stop-opacity="0.77"/>
<stop offset="0.6" stop-color="#0189F0" stop-opacity="0.36"/>
<stop offset="0.87" stop-color="#0064EF" stop-opacity="0.1"/>
<stop offset="1" stop-color="#0055EE" stop-opacity="0"/>
</linearGradient>
<linearGradient id="paint4_linear_1413_58140" x1="72.4999" y1="62.0199" x2="62.8899" y2="49.1399" gradientUnits="userSpaceOnUse">
<stop stop-color="#03E6F4"/>
<stop offset="0.21" stop-color="#02C4F3" stop-opacity="0.77"/>
<stop offset="0.6" stop-color="#0189F0" stop-opacity="0.36"/>
<stop offset="0.87" stop-color="#0064EF" stop-opacity="0.1"/>
<stop offset="1" stop-color="#0055EE" stop-opacity="0"/>
</linearGradient>
<linearGradient id="paint5_linear_1413_58140" x1="2.41996" y1="62.0599" x2="11.8999" y2="49.3499" gradientUnits="userSpaceOnUse">
<stop stop-color="#03E6F4"/>
<stop offset="0.21" stop-color="#02C4F3" stop-opacity="0.77"/>
<stop offset="0.6" stop-color="#0189F0" stop-opacity="0.36"/>
<stop offset="0.87" stop-color="#0064EF" stop-opacity="0.1"/>
<stop offset="1" stop-color="#0055EE" stop-opacity="0"/>
</linearGradient>
<linearGradient id="paint6_linear_1413_58140" x1="37.47" y1="87.93" x2="37.47" y2="69.3699" gradientUnits="userSpaceOnUse">
<stop stop-color="#03E6F4"/>
<stop offset="0.21" stop-color="#02C4F3" stop-opacity="0.77"/>
<stop offset="0.6" stop-color="#0189F0" stop-opacity="0.36"/>
<stop offset="0.87" stop-color="#0064EF" stop-opacity="0.1"/>
<stop offset="1" stop-color="#0055EE" stop-opacity="0"/>
</linearGradient>
<linearGradient id="paint7_linear_1413_58140" x1="37.47" y1="66.53" x2="37.47" y2="47.9701" gradientUnits="userSpaceOnUse">
<stop stop-color="#03E6F4"/>
<stop offset="0.21" stop-color="#02C4F3" stop-opacity="0.77"/>
<stop offset="0.6" stop-color="#0189F0" stop-opacity="0.36"/>
<stop offset="0.87" stop-color="#0064EF" stop-opacity="0.1"/>
<stop offset="1" stop-color="#0055EE" stop-opacity="0"/>
</linearGradient>
<linearGradient id="paint8_linear_1413_58140" x1="37.47" y1="55.5" x2="37.47" y2="65.09" gradientUnits="userSpaceOnUse">
<stop stop-color="#03E6F4"/>
<stop offset="0.11" stop-color="#03D5F3" stop-opacity="0.9"/>
<stop offset="0.55" stop-color="#0191F0" stop-opacity="0.53"/>
<stop offset="0.86" stop-color="#0066EF" stop-opacity="0.29"/>
<stop offset="1" stop-color="#0055EE" stop-opacity="0.2"/>
</linearGradient>
<linearGradient id="paint9_linear_1413_58140" x1="37.47" y1="77.15" x2="37.47" y2="64.3001" gradientUnits="userSpaceOnUse">
<stop stop-color="#03E6F4"/>
<stop offset="0.21" stop-color="#02C4F3" stop-opacity="0.77"/>
<stop offset="0.6" stop-color="#0189F0" stop-opacity="0.36"/>
<stop offset="0.87" stop-color="#0064EF" stop-opacity="0.1"/>
<stop offset="1" stop-color="#0055EE" stop-opacity="0"/>
</linearGradient>
<linearGradient id="paint10_linear_1413_58140" x1="37.47" y1="81.0399" x2="37.47" y2="68.1999" gradientUnits="userSpaceOnUse">
<stop stop-color="#03E6F4"/>
<stop offset="0.21" stop-color="#02C4F3" stop-opacity="0.77"/>
<stop offset="0.6" stop-color="#0189F0" stop-opacity="0.36"/>
<stop offset="0.87" stop-color="#0064EF" stop-opacity="0.1"/>
<stop offset="1" stop-color="#0055EE" stop-opacity="0"/>
</linearGradient>
<linearGradient id="paint11_linear_1413_58140" x1="37.38" y1="90.2899" x2="37.38" y2="80.4399" gradientUnits="userSpaceOnUse">
<stop stop-color="#03E6F4"/>
<stop offset="0.21" stop-color="#02C4F3" stop-opacity="0.77"/>
<stop offset="0.6" stop-color="#0189F0" stop-opacity="0.36"/>
<stop offset="0.87" stop-color="#0064EF" stop-opacity="0.1"/>
<stop offset="1" stop-color="#0055EE" stop-opacity="0"/>
</linearGradient>
<linearGradient id="paint12_linear_1413_58140" x1="37.38" y1="67.9001" x2="37.38" y2="58.05" gradientUnits="userSpaceOnUse">
<stop stop-color="#03E6F4"/>
<stop offset="0.21" stop-color="#02C4F3" stop-opacity="0.77"/>
<stop offset="0.6" stop-color="#0189F0" stop-opacity="0.36"/>
<stop offset="0.87" stop-color="#0064EF" stop-opacity="0.1"/>
<stop offset="1" stop-color="#0055EE" stop-opacity="0"/>
</linearGradient>
<linearGradient id="paint13_linear_1413_58140" x1="37.4698" y1="68.3899" x2="37.4698" y2="14.3899" gradientUnits="userSpaceOnUse">
<stop stop-color="#03E6F4"/>
<stop offset="0.21" stop-color="#02C4F3" stop-opacity="0.77"/>
<stop offset="0.6" stop-color="#0189F0" stop-opacity="0.36"/>
<stop offset="0.87" stop-color="#0064EF" stop-opacity="0.1"/>
<stop offset="1" stop-color="#0055EE" stop-opacity="0"/>
</linearGradient>
<linearGradient id="paint14_linear_1413_58140" x1="37.4701" y1="68.3899" x2="37.4701" y2="14.3899" gradientUnits="userSpaceOnUse">
<stop stop-color="#03E6F4"/>
<stop offset="0.21" stop-color="#02C4F3" stop-opacity="0.77"/>
<stop offset="0.6" stop-color="#0189F0" stop-opacity="0.36"/>
<stop offset="0.87" stop-color="#0064EF" stop-opacity="0.1"/>
<stop offset="1" stop-color="#0055EE" stop-opacity="0"/>
</linearGradient>
<linearGradient id="paint15_linear_1413_58140" x1="50.1001" y1="11.9099" x2="20.5801" y2="11.9099" gradientUnits="userSpaceOnUse">
<stop stop-color="#03E6F4"/>
<stop offset="0.21" stop-color="#02C4F3" stop-opacity="0.77"/>
<stop offset="0.6" stop-color="#0189F0" stop-opacity="0.36"/>
<stop offset="0.87" stop-color="#0064EF" stop-opacity="0.1"/>
<stop offset="1" stop-color="#0055EE" stop-opacity="0"/>
</linearGradient>
<linearGradient id="paint16_linear_1413_58140" x1="28.0399" y1="11.9099" x2="49.4999" y2="11.9099" gradientUnits="userSpaceOnUse">
<stop stop-color="#03E6F4"/>
<stop offset="0.21" stop-color="#02C4F3" stop-opacity="0.77"/>
<stop offset="0.6" stop-color="#0189F0" stop-opacity="0.36"/>
<stop offset="0.87" stop-color="#0064EF" stop-opacity="0.1"/>
<stop offset="1" stop-color="#0055EE" stop-opacity="0"/>
</linearGradient>
<linearGradient id="paint17_linear_1413_58140" x1="23.5498" y1="39.2199" x2="8.85984" y2="39.2199" gradientUnits="userSpaceOnUse">
<stop stop-color="#03E6F4"/>
<stop offset="0.21" stop-color="#02C4F3" stop-opacity="0.77"/>
<stop offset="0.6" stop-color="#0189F0" stop-opacity="0.36"/>
<stop offset="0.87" stop-color="#0064EF" stop-opacity="0.1"/>
<stop offset="1" stop-color="#0055EE" stop-opacity="0"/>
</linearGradient>
<linearGradient id="paint18_linear_1413_58140" x1="17.6198" y1="31.9601" x2="16.5198" y2="50.5401" gradientUnits="userSpaceOnUse">
<stop stop-color="#03E6F4"/>
<stop offset="0.21" stop-color="#02C4F3" stop-opacity="0.77"/>
<stop offset="0.6" stop-color="#0189F0" stop-opacity="0.36"/>
<stop offset="0.87" stop-color="#0064EF" stop-opacity="0.1"/>
<stop offset="1" stop-color="#0055EE" stop-opacity="0"/>
</linearGradient>
<linearGradient id="paint19_linear_1413_58140" x1="12.5699" y1="39.2199" x2="23.2499" y2="39.2199" gradientUnits="userSpaceOnUse">
<stop stop-color="#03E6F4"/>
<stop offset="0.21" stop-color="#02C4F3" stop-opacity="0.77"/>
<stop offset="0.6" stop-color="#0189F0" stop-opacity="0.36"/>
<stop offset="0.87" stop-color="#0064EF" stop-opacity="0.1"/>
<stop offset="1" stop-color="#0055EE" stop-opacity="0"/>
</linearGradient>
<linearGradient id="paint20_linear_1413_58140" x1="67.4898" y1="35.79" x2="49.1598" y2="35.79" gradientUnits="userSpaceOnUse">
<stop stop-color="#03E6F4"/>
<stop offset="0.21" stop-color="#02C4F3" stop-opacity="0.77"/>
<stop offset="0.6" stop-color="#0189F0" stop-opacity="0.36"/>
<stop offset="0.87" stop-color="#0064EF" stop-opacity="0.1"/>
<stop offset="1" stop-color="#0055EE" stop-opacity="0"/>
</linearGradient>
<linearGradient id="paint21_linear_1413_58140" x1="60.0999" y1="26.7299" x2="58.7299" y2="49.9099" gradientUnits="userSpaceOnUse">
<stop stop-color="#03E6F4"/>
<stop offset="0.21" stop-color="#02C4F3" stop-opacity="0.77"/>
<stop offset="0.6" stop-color="#0189F0" stop-opacity="0.36"/>
<stop offset="0.87" stop-color="#0064EF" stop-opacity="0.1"/>
<stop offset="1" stop-color="#0055EE" stop-opacity="0"/>
</linearGradient>
<linearGradient id="paint22_linear_1413_58140" x1="53.7998" y1="35.7901" x2="67.1198" y2="35.7901" gradientUnits="userSpaceOnUse">
<stop stop-color="#03E6F4"/>
<stop offset="0.21" stop-color="#02C4F3" stop-opacity="0.77"/>
<stop offset="0.6" stop-color="#0189F0" stop-opacity="0.36"/>
<stop offset="0.87" stop-color="#0064EF" stop-opacity="0.1"/>
<stop offset="1" stop-color="#0055EE" stop-opacity="0"/>
</linearGradient>
<linearGradient id="paint23_linear_1413_58140" x1="37.9796" y1="15.3102" x2="32.6696" y2="9.90017" gradientUnits="userSpaceOnUse">
<stop stop-color="#5AC8FF"/>
<stop offset="1" stop-color="#00E8E4"/>
</linearGradient>
<linearGradient id="paint24_linear_1413_58140" x1="41.4995" y1="11.75" x2="36.6394" y2="6.78996" gradientUnits="userSpaceOnUse">
<stop stop-color="#5AC8FF"/>
<stop offset="1" stop-color="#00E8E4"/>
</linearGradient>
<linearGradient id="paint25_linear_1413_58140" x1="39.2077" y1="14.0036" x2="34.3477" y2="9.04358" gradientUnits="userSpaceOnUse">
<stop stop-color="#5AC8FF"/>
<stop offset="1" stop-color="#00E8E4"/>
</linearGradient>
<linearGradient id="paint26_linear_1413_58140" x1="40.951" y1="12.2945" x2="36.091" y2="7.3445" gradientUnits="userSpaceOnUse">
<stop stop-color="#5AC8FF"/>
<stop offset="1" stop-color="#00E8E4"/>
</linearGradient>
</defs>
</svg>
