<svg width="88" height="88" viewBox="0 0 88 88" fill="none" xmlns="http://www.w3.org/2000/svg">
<path d="M65.5606 62.4163C66.1122 59.7527 66.4143 57.0436 66.463 54.3239C66.463 39.3491 58.5294 25.7528 47.9875 14.249C42.7436 16.3104 37.8291 19.1268 33.3995 22.6091C41.9282 29.4122 49.8618 38.6252 49.8618 49.2662C49.9713 56.1454 48.0724 62.9071 44.3975 68.7235L17.9189 83.381C21.9169 85.257 26.2008 86.4503 30.593 86.9114C56.6253 88.5874 64.5094 65.9071 65.5606 62.4163Z" fill="url(#paint0_linear_49445_117605)"/>
<path d="M32.0115 65.3719C32.6706 65.4367 33.3327 65.4665 33.9949 65.4611C33.9949 65.4611 20.8052 65.9867 10.5906 57.1903C6.54524 53.7276 3.27724 49.4491 1.0008 44.6353C0.531491 46.9198 0.288998 49.245 0.276855 51.5772C0.276855 72.4626 11.3641 81.3284 21.5688 84.8986C26.0259 83.4702 30.2692 81.4452 34.1833 78.8789H34.2329L34.4808 78.7103C39.2609 75.4476 48.6226 67.4445 49.6738 53.2433C49.6738 53.2433 46.0342 66.2842 32.0115 65.3719Z" fill="url(#paint1_linear_49445_117605)"/>
<path d="M48.0575 14.3285C43.6273 9.54123 38.8509 5.08636 33.767 1C18.3559 12.7121 4.30336 28.5199 1.00098 44.6351C3.2587 49.4667 6.51339 53.7657 10.5511 57.2497C20.7657 66.0064 33.9951 65.461 33.9951 65.461C29.2051 65.461 16.9278 63.2693 16.9278 47.7491C16.8881 33.409 36.2562 18.6127 48.0575 14.3285Z" fill="url(#paint2_linear_49445_117605)"/>
<defs>
<linearGradient id="paint0_linear_49445_117605" x1="47.2338" y1="74.1184" x2="28.7087" y2="35.7294" gradientUnits="userSpaceOnUse">
<stop stop-color="#03E7F5"/>
<stop offset="0.37" stop-color="#02ACF3"/>
<stop offset="0.8" stop-color="#016DF0"/>
<stop offset="1" stop-color="#0055EF"/>
</linearGradient>
<linearGradient id="paint1_linear_49445_117605" x1="16.283" y1="48.9293" x2="37.5849" y2="75.4377" gradientUnits="userSpaceOnUse">
<stop stop-color="#03E7F5"/>
<stop offset="0.37" stop-color="#02ACF3"/>
<stop offset="0.8" stop-color="#016DF0"/>
<stop offset="1" stop-color="#0055EF"/>
</linearGradient>
<linearGradient id="paint2_linear_49445_117605" x1="35.7901" y1="25.1382" x2="17.4832" y2="51.7754" gradientUnits="userSpaceOnUse">
<stop stop-color="#03E7F5"/>
<stop offset="0.37" stop-color="#02ACF3"/>
<stop offset="0.8" stop-color="#016DF0"/>
<stop offset="1" stop-color="#0055EF"/>
</linearGradient>
</defs>
</svg>
