<svg width="88" height="88" viewBox="0 0 88 88" fill="none" xmlns="http://www.w3.org/2000/svg">
<path d="M0 48.6104V63.5482C0 63.5482 9.73851 72.6383 31.3849 72.6383C53.0313 72.6383 63.6658 63.7605 63.6658 63.7605V48.6104C63.6658 48.6104 48.7279 57.276 31.8329 57.276C14.9379 57.276 0 48.6104 0 48.6104Z" fill="url(#paint0_linear_49482_117299)"/>
<path d="M0 63.9722V78.8983C0 78.8983 9.73851 88.0001 31.3849 88.0001C53.0313 88.0001 63.6658 79.1223 63.6658 79.1223V63.9722C63.6658 63.9722 48.7043 72.626 31.8329 72.626C14.9615 72.626 0 63.9722 0 63.9722Z" fill="url(#paint1_linear_49482_117299)"/>
<path d="M31.8211 57.2523C49.3954 57.2523 63.6422 52.6231 63.6422 46.9126C63.6422 41.202 49.3954 36.5728 31.8211 36.5728C14.2468 36.5728 0 41.202 0 46.9126C0 52.6231 14.2468 57.2523 31.8211 57.2523Z" fill="url(#paint2_linear_49482_117299)"/>
<path d="M31.8332 50.5672V0L10.8589 9.43197C10.9296 31.5028 18.77 44.2006 31.8332 50.5672Z" fill="url(#paint3_linear_49482_117299)"/>
<path d="M31.833 0V50.5672C44.8727 44.2006 52.713 31.5028 52.7838 9.43197L31.833 0Z" fill="url(#paint4_linear_49482_117299)"/>
<path d="M32.0455 35.9948C31.5752 36.016 31.1093 35.8959 30.7079 35.65C30.3064 35.4041 29.9877 35.0437 29.7929 34.6151C29.598 34.1865 29.5359 33.7094 29.6145 33.2453C29.6932 32.7811 29.909 32.3511 30.2341 32.0106C30.5593 31.6702 30.9789 31.4348 31.439 31.3349C31.899 31.235 32.3785 31.2751 32.8155 31.45C33.2526 31.6249 33.6273 31.9267 33.8914 32.3164C34.1555 32.7061 34.2969 33.166 34.2974 33.6368C34.298 34.2442 34.0642 34.8284 33.6447 35.2677C33.2252 35.707 32.6523 35.9674 32.0455 35.9948V35.9948ZM32.918 29.9111H30.8901L28.5321 11.6485C28.5254 11.2056 28.6089 10.7659 28.7775 10.3563C28.9461 9.94662 29.1963 9.57556 29.5128 9.26565C29.8293 8.95574 30.2056 8.71347 30.6187 8.55356C31.0318 8.39366 31.4731 8.31948 31.9158 8.33552C32.3721 8.29181 32.8325 8.34572 33.2664 8.49366C33.7003 8.64159 34.0977 8.88017 34.4322 9.19354C34.7668 9.5069 35.0308 9.88788 35.2068 10.3112C35.3827 10.7344 35.4666 11.1903 35.4528 11.6485L32.918 29.9111Z" fill="black"/>
<defs>
<linearGradient id="paint0_linear_49482_117299" x1="12.2498" y1="40.8526" x2="59.2092" y2="77.425" gradientUnits="userSpaceOnUse">
<stop stop-color="#03E7F5"/>
<stop offset="1" stop-color="#19B9F0"/>
</linearGradient>
<linearGradient id="paint1_linear_49482_117299" x1="0" y1="75.9861" x2="63.6422" y2="75.9861" gradientUnits="userSpaceOnUse">
<stop stop-color="#1162D8"/>
<stop offset="0.57" stop-color="#0788ED"/>
<stop offset="1" stop-color="#00A0FB"/>
</linearGradient>
<linearGradient id="paint2_linear_49482_117299" x1="0" y1="46.9125" x2="63.6422" y2="46.9125" gradientUnits="userSpaceOnUse">
<stop stop-color="#03EFFF"/>
<stop offset="0.51" stop-color="#04EDFE"/>
<stop offset="0.69" stop-color="#07E6FD"/>
<stop offset="0.82" stop-color="#0BDBF9"/>
<stop offset="0.93" stop-color="#12CAF5"/>
<stop offset="1" stop-color="#19B9F0"/>
</linearGradient>
<linearGradient id="paint3_linear_49482_117299" x1="53.963" y1="41.2885" x2="4.37441" y2="6.13077" gradientUnits="userSpaceOnUse">
<stop stop-color="#1162D8"/>
<stop offset="0.57" stop-color="#0788ED"/>
<stop offset="1" stop-color="#00A0FB"/>
</linearGradient>
<linearGradient id="paint4_linear_49482_117299" x1="55.4011" y1="39.2606" x2="5.81256" y2="4.09112" gradientUnits="userSpaceOnUse">
<stop stop-color="#1162D8"/>
<stop offset="0.57" stop-color="#0788ED"/>
<stop offset="1" stop-color="#00A0FB"/>
</linearGradient>
</defs>
</svg>
