<svg width="88" height="88" viewBox="0 0 88 88" fill="none" xmlns="http://www.w3.org/2000/svg">
<path d="M1.86084 34.7083H6.28996C6.28996 34.7083 9.31891 21.6686 20.0345 17.1061C30.7502 12.5437 42.0563 22.1925 41.361 34.7083H76.2796C76.2796 34.7083 70.2218 6 38.5797 6C6.93766 6 1.86084 34.7083 1.86084 34.7083Z" fill="url(#paint0_linear_49183_116052)"/>
<path d="M76.2796 53.292H71.8505C71.8505 53.292 68.8121 66.3317 58.106 70.8942C47.3999 75.4567 36.0842 65.8459 36.7795 53.292H1.86084C1.86084 53.292 7.90921 82.0003 39.5513 82.0003C71.1933 82.0003 76.2796 53.292 76.2796 53.292Z" fill="url(#paint1_linear_49183_116052)"/>
<defs>
<linearGradient id="paint0_linear_49183_116052" x1="52.0766" y1="10.9149" x2="39.3131" y2="32.4319" gradientUnits="userSpaceOnUse">
<stop stop-color="#03E7F5"/>
<stop offset="0.44" stop-color="#0DD1F3"/>
<stop offset="1" stop-color="#19B9F0"/>
</linearGradient>
<linearGradient id="paint1_linear_49183_116052" x1="55.1246" y1="56.0828" x2="25.5971" y2="67.3509" gradientUnits="userSpaceOnUse">
<stop stop-color="#1162D8"/>
<stop offset="0.51" stop-color="#1280DF"/>
<stop offset="1" stop-color="#1398E4"/>
</linearGradient>
</defs>
</svg>
