<svg width="210" height="118" viewBox="0 0 210 118" fill="none" xmlns="http://www.w3.org/2000/svg">
<path d="M76.7085 97.9291L75.5166 97.0102L98.2541 11.2554L99.8373 11.6739L77.6002 95.5362L151.7 52.9545L152.519 54.3739L76.7085 97.9291Z" fill="url(#paint0_linear_49445_117571)"/>
<path d="M87.9001 104.07L86.508 103.505L85.8711 14.7845L87.4998 14.7754L88.1276 101.531L148.106 41.1524L149.271 42.3079L87.9001 104.07Z" fill="url(#paint1_linear_49445_117571)"/>
<path d="M99.8912 107L98.3899 106.809L75.2065 21.1723L76.7806 20.7446L99.4545 104.489L142.373 30.6258L143.783 31.4446L99.8912 107Z" fill="url(#paint2_linear_49445_117571)"/>
<path d="M110.81 106.963L66.4722 30.1162L67.8825 29.2974L111.238 104.443L133.365 22.8828L134.949 23.3104L112.302 106.772L110.81 106.963Z" fill="url(#paint3_linear_49445_117571)"/>
<path d="M122.848 103.943L60.3223 41.0075L61.4778 39.852L122.612 101.386L122.684 16.1045L124.313 16.1136L124.249 103.37L122.848 103.943Z" fill="url(#paint4_linear_49445_117571)"/>
<path d="M133.803 97.8756L57.1465 53.2103L57.9654 51.8L132.911 95.4644L111.047 12.8941L112.63 12.4756L135.004 96.9566L133.803 97.8756Z" fill="url(#paint5_linear_49445_117571)"/>
<path d="M142.738 89.2757L57.2104 65.7011L57.6472 64.127L141.282 87.183L98.9824 11.8007L100.411 11L143.666 88.0929L142.738 89.2757Z" fill="url(#paint6_linear_49445_117571)"/>
<path d="M149.243 78.5383L60.5308 77.9014L60.5399 76.2637L147.296 76.8915L86.926 15.0297L88.0906 13.8833L149.834 77.1553L149.243 78.5383Z" fill="url(#paint7_linear_49445_117571)"/>
<path d="M103.714 35.72L77.0368 19.7974L76.1997 21.2077L102.513 36.9028L103.714 35.72Z" fill="url(#paint8_linear_49445_117571)"/>
<path d="M111.902 40.6069L116.406 45.1927L150.435 65.4918L66.4268 87.1647L66.8271 88.7479L152.737 66.5836L152.946 65.0914L111.902 40.6069Z" fill="url(#paint9_linear_49445_117571)"/>
<path d="M101.448 37.9595L67.8374 28.3877L67.3916 29.9618L100.119 39.2788L101.448 37.9595Z" fill="url(#paint10_linear_49445_117571)"/>
<path d="M152.855 52.6001L112.357 41.063L114.668 43.4195L150.544 53.6373L76.7358 95.9552L77.5456 97.3746L153.046 54.0923L152.855 52.6001Z" fill="url(#paint11_linear_49445_117571)"/>
<path d="M149.398 40.1791L111.165 39.8516L112.785 41.4984L147.442 41.7987L87.2358 102.368L88.4005 103.515L149.971 41.5712L149.398 40.1791Z" fill="url(#paint12_linear_49445_117571)"/>
<path d="M99.6364 39.7533L60.9944 39.4258L60.9854 41.0544L97.9987 41.3729L99.6364 39.7533Z" fill="url(#paint13_linear_49445_117571)"/>
<path d="M143.23 29.7261L109.492 38.1423L110.82 39.498L141.747 31.7824L98.8555 105.572L100.275 106.391L144.139 30.9362L143.23 29.7261Z" fill="url(#paint14_linear_49445_117571)"/>
<path d="M98.4915 40.8804L57.4565 51.1164L57.8569 52.7086L96.2168 43.1368L98.4915 40.8804Z" fill="url(#paint15_linear_49445_117571)"/>
<path d="M98.8265 40.5532L57 63.8549L57.7916 65.2834L94.4865 44.8478L98.8265 40.5532Z" fill="url(#paint16_linear_49445_117571)"/>
<path d="M134.229 20.8354L107.252 35.8573L108.444 37.0674L133.329 23.2102L110.964 105.708L112.547 106.135L135.412 21.7635L134.229 20.8354Z" fill="url(#paint17_linear_49445_117571)"/>
<path d="M124.295 102.343H122.666L122.711 17.0249L61.1318 77.7038L59.9854 76.5391L122.957 14.4863L124.349 15.0686L124.295 102.343Z" fill="url(#paint18_linear_49445_117571)"/>
<path d="M133.302 96.9553L111.32 13.9482L67.3458 88.3752L65.9355 87.5472L110.901 11.437L112.402 11.6463L134.876 96.5367L133.302 96.9553Z" fill="url(#paint19_linear_49445_117571)"/>
<path d="M133.202 96.382L111.32 13.9482L67.3458 88.3752L65.9355 87.5473L110.901 11.437L112.402 11.6463L134.785 95.9635L133.202 96.382Z" fill="url(#paint20_linear_49445_117571)"/>
<path d="M98.2632 11.2725L100.401 11.0269L99.3548 12.1548L98.2632 11.2725Z" fill="url(#paint21_linear_49445_117571)"/>
<path d="M85.8525 14.7572L88.0721 13.8931L87.8902 15.1939L85.8525 14.7572Z" fill="url(#paint22_linear_49445_117571)"/>
<path d="M75.189 21.1629L76.9992 19.7803L76.4625 21.2903L75.189 21.1629Z" fill="url(#paint23_linear_49445_117571)"/>
<path d="M66.4644 30.089L67.8197 28.3516L67.7197 29.9616L66.4644 30.089Z" fill="url(#paint24_linear_49445_117571)"/>
<path d="M60.2944 40.9975L61.0131 39.3965L61.1404 40.7246L60.2944 40.9975Z" fill="url(#paint25_linear_49445_117571)"/>
<path d="M57.1382 53.1631L57.4384 51.1255L57.875 52.5536L57.1382 53.1631Z" fill="url(#paint26_linear_49445_117571)"/>
<path d="M57.2092 65.6736L57 63.8452L57.846 64.9004L57.2092 65.6736Z" fill="url(#paint27_linear_49445_117571)"/>
<path d="M60.4954 77.838L59.9951 76.519L60.8138 76.8829L60.4954 77.838Z" fill="url(#paint28_linear_49445_117571)"/>
<path d="M65.9263 87.5654L66.8359 88.7935L66.9997 87.7656L65.9263 87.5654Z" fill="url(#paint29_linear_49445_117571)"/>
<defs>
<linearGradient id="paint0_linear_49445_117571" x1="114.013" y1="24.8488" x2="114.013" y2="137.881" gradientUnits="userSpaceOnUse">
<stop stop-color="#EDEDED"/>
<stop offset="1" stop-color="#EBEBEB" stop-opacity="0"/>
</linearGradient>
<linearGradient id="paint1_linear_49445_117571" x1="117.571" y1="24.8476" x2="117.571" y2="137.88" gradientUnits="userSpaceOnUse">
<stop stop-color="#EDEDED"/>
<stop offset="1" stop-color="#EBEBEB" stop-opacity="0"/>
</linearGradient>
<linearGradient id="paint2_linear_49445_117571" x1="109.49" y1="24.8481" x2="109.49" y2="137.881" gradientUnits="userSpaceOnUse">
<stop stop-color="#EDEDED"/>
<stop offset="1" stop-color="#EBEBEB" stop-opacity="0"/>
</linearGradient>
<linearGradient id="paint3_linear_49445_117571" x1="100.71" y1="24.8481" x2="100.71" y2="137.881" gradientUnits="userSpaceOnUse">
<stop stop-color="#EDEDED"/>
<stop offset="1" stop-color="#EBEBEB" stop-opacity="0"/>
</linearGradient>
<linearGradient id="paint4_linear_49445_117571" x1="92.3131" y1="24.8483" x2="92.3131" y2="137.881" gradientUnits="userSpaceOnUse">
<stop stop-color="#EDEDED"/>
<stop offset="1" stop-color="#EBEBEB" stop-opacity="0"/>
</linearGradient>
<linearGradient id="paint5_linear_49445_117571" x1="96.0705" y1="24.8498" x2="96.0705" y2="137.882" gradientUnits="userSpaceOnUse">
<stop stop-color="#EDEDED"/>
<stop offset="1" stop-color="#EBEBEB" stop-opacity="0"/>
</linearGradient>
<linearGradient id="paint6_linear_49445_117571" x1="100.438" y1="24.8482" x2="100.438" y2="137.881" gradientUnits="userSpaceOnUse">
<stop stop-color="#EDEDED"/>
<stop offset="1" stop-color="#EBEBEB" stop-opacity="0"/>
</linearGradient>
<linearGradient id="paint7_linear_49445_117571" x1="105.187" y1="24.8472" x2="105.187" y2="137.88" gradientUnits="userSpaceOnUse">
<stop stop-color="#EDEDED"/>
<stop offset="1" stop-color="#EBEBEB" stop-opacity="0"/>
</linearGradient>
<linearGradient id="paint8_linear_49445_117571" x1="89.9569" y1="24.8471" x2="89.9569" y2="137.88" gradientUnits="userSpaceOnUse">
<stop stop-color="#EDEDED"/>
<stop offset="1" stop-color="#EBEBEB" stop-opacity="0"/>
</linearGradient>
<linearGradient id="paint9_linear_49445_117571" x1="109.691" y1="24.8481" x2="109.691" y2="137.881" gradientUnits="userSpaceOnUse">
<stop stop-color="#EDEDED"/>
<stop offset="1" stop-color="#EBEBEB" stop-opacity="0"/>
</linearGradient>
<linearGradient id="paint10_linear_49445_117571" x1="84.4243" y1="24.8483" x2="84.4243" y2="137.881" gradientUnits="userSpaceOnUse">
<stop stop-color="#EDEDED"/>
<stop offset="1" stop-color="#EBEBEB" stop-opacity="0"/>
</linearGradient>
<linearGradient id="paint11_linear_49445_117571" x1="114.886" y1="24.8492" x2="114.886" y2="137.882" gradientUnits="userSpaceOnUse">
<stop stop-color="#EDEDED"/>
<stop offset="1" stop-color="#EBEBEB" stop-opacity="0"/>
</linearGradient>
<linearGradient id="paint12_linear_49445_117571" x1="118.599" y1="24.8479" x2="118.599" y2="137.88" gradientUnits="userSpaceOnUse">
<stop stop-color="#EDEDED"/>
<stop offset="1" stop-color="#EBEBEB" stop-opacity="0"/>
</linearGradient>
<linearGradient id="paint13_linear_49445_117571" x1="80.3109" y1="24.8497" x2="80.3109" y2="137.882" gradientUnits="userSpaceOnUse">
<stop stop-color="#EDEDED"/>
<stop offset="1" stop-color="#EBEBEB" stop-opacity="0"/>
</linearGradient>
<linearGradient id="paint14_linear_49445_117571" x1="121.493" y1="24.8492" x2="121.493" y2="137.882" gradientUnits="userSpaceOnUse">
<stop stop-color="#EDEDED"/>
<stop offset="1" stop-color="#EBEBEB" stop-opacity="0"/>
</linearGradient>
<linearGradient id="paint15_linear_49445_117571" x1="77.974" y1="24.8485" x2="77.974" y2="137.881" gradientUnits="userSpaceOnUse">
<stop stop-color="#EDEDED"/>
<stop offset="1" stop-color="#EBEBEB" stop-opacity="0"/>
</linearGradient>
<linearGradient id="paint16_linear_49445_117571" x1="77.9087" y1="24.8489" x2="77.9087" y2="137.882" gradientUnits="userSpaceOnUse">
<stop stop-color="#EDEDED"/>
<stop offset="1" stop-color="#EBEBEB" stop-opacity="0"/>
</linearGradient>
<linearGradient id="paint17_linear_49445_117571" x1="121.337" y1="24.848" x2="121.337" y2="137.881" gradientUnits="userSpaceOnUse">
<stop stop-color="#EDEDED"/>
<stop offset="1" stop-color="#EBEBEB" stop-opacity="0"/>
</linearGradient>
<linearGradient id="paint18_linear_49445_117571" x1="92.1673" y1="24.8497" x2="92.1673" y2="137.882" gradientUnits="userSpaceOnUse">
<stop stop-color="#EDEDED"/>
<stop offset="1" stop-color="#EBEBEB" stop-opacity="0"/>
</linearGradient>
<linearGradient id="paint19_linear_49445_117571" x1="100.41" y1="24.8484" x2="100.41" y2="137.881" gradientUnits="userSpaceOnUse">
<stop stop-color="#EDEDED"/>
<stop offset="1" stop-color="#EBEBEB" stop-opacity="0"/>
</linearGradient>
<linearGradient id="paint20_linear_49445_117571" x1="100.356" y1="24.8484" x2="100.356" y2="137.881" gradientUnits="userSpaceOnUse">
<stop stop-color="#EDEDED"/>
<stop offset="1" stop-color="#EBEBEB" stop-opacity="0"/>
</linearGradient>
<linearGradient id="paint21_linear_49445_117571" x1="99.3275" y1="24.8445" x2="99.3275" y2="137.851" gradientUnits="userSpaceOnUse">
<stop stop-color="#EDEDED"/>
<stop offset="1" stop-color="#EBEBEB" stop-opacity="0"/>
</linearGradient>
<linearGradient id="paint22_linear_49445_117571" x1="86.9623" y1="24.8453" x2="86.9623" y2="137.851" gradientUnits="userSpaceOnUse">
<stop stop-color="#EDEDED"/>
<stop offset="1" stop-color="#EBEBEB" stop-opacity="0"/>
</linearGradient>
<linearGradient id="paint23_linear_49445_117571" x1="76.0986" y1="24.847" x2="76.0986" y2="137.853" gradientUnits="userSpaceOnUse">
<stop stop-color="#EDEDED"/>
<stop offset="1" stop-color="#EBEBEB" stop-opacity="0"/>
</linearGradient>
<linearGradient id="paint24_linear_49445_117571" x1="67.1466" y1="24.8494" x2="67.1466" y2="137.855" gradientUnits="userSpaceOnUse">
<stop stop-color="#EDEDED"/>
<stop offset="1" stop-color="#EBEBEB" stop-opacity="0"/>
</linearGradient>
<linearGradient id="paint25_linear_49445_117571" x1="60.7129" y1="24.8511" x2="60.7129" y2="137.857" gradientUnits="userSpaceOnUse">
<stop stop-color="#EDEDED"/>
<stop offset="1" stop-color="#EBEBEB" stop-opacity="0"/>
</linearGradient>
<linearGradient id="paint26_linear_49445_117571" x1="57.502" y1="24.8547" x2="57.502" y2="137.861" gradientUnits="userSpaceOnUse">
<stop stop-color="#EDEDED"/>
<stop offset="1" stop-color="#EBEBEB" stop-opacity="0"/>
</linearGradient>
<linearGradient id="paint27_linear_49445_117571" x1="57.4275" y1="24.8576" x2="57.4275" y2="137.864" gradientUnits="userSpaceOnUse">
<stop stop-color="#EDEDED"/>
<stop offset="1" stop-color="#EBEBEB" stop-opacity="0"/>
</linearGradient>
<linearGradient id="paint28_linear_49445_117571" x1="60.4045" y1="24.86" x2="60.4045" y2="137.866" gradientUnits="userSpaceOnUse">
<stop stop-color="#EDEDED"/>
<stop offset="1" stop-color="#EBEBEB" stop-opacity="0"/>
</linearGradient>
<linearGradient id="paint29_linear_49445_117571" x1="66.463" y1="24.8632" x2="66.463" y2="137.869" gradientUnits="userSpaceOnUse">
<stop stop-color="#EDEDED"/>
<stop offset="1" stop-color="#EBEBEB" stop-opacity="0"/>
</linearGradient>
</defs>
</svg>
