<svg xmlns="http://www.w3.org/2000/svg" xmlns:xlink="http://www.w3.org/1999/xlink" width="159.73" height="250.81" viewBox="0 0 159.73 250.81">
  <defs>
    <style>
      .cls-1 {
        fill: url(#未命名的渐变_306);
      }

      .cls-2 {
        fill: url(#未命名的渐变_306-2);
      }

      .cls-3 {
        fill: url(#未命名的渐变_306-3);
      }

      .cls-4 {
        fill: url(#未命名的渐变_306-4);
      }

      .cls-5 {
        fill: url(#未命名的渐变_306-5);
      }

      .cls-6 {
        fill: url(#未命名的渐变_306-6);
      }

      .cls-7 {
        fill: url(#未命名的渐变_306-7);
      }

      .cls-8 {
        fill: url(#未命名的渐变_306-8);
      }

      .cls-10, .cls-11, .cls-15, .cls-9 {
        opacity: 0.6;
      }

      .cls-9 {
        fill: url(#未命名的渐变_306-9);
      }

      .cls-10 {
        fill: url(#未命名的渐变_306-10);
      }

      .cls-11 {
        fill: url(#未命名的渐变_306-11);
      }

      .cls-12 {
        fill: url(#未命名的渐变_306-12);
      }

      .cls-13 {
        fill: url(#未命名的渐变_306-13);
      }

      .cls-14 {
        fill: url(#未命名的渐变_306-14);
      }

      .cls-15 {
        fill: url(#未命名的渐变_306-15);
      }

      .cls-16 {
        fill: url(#未命名的渐变_306-16);
      }

      .cls-17 {
        fill: url(#未命名的渐变_377);
      }

      .cls-18 {
        fill: url(#未命名的渐变_377-2);
      }

      .cls-19 {
        fill: url(#未命名的渐变_377-3);
      }

      .cls-20 {
        fill: url(#未命名的渐变_377-4);
      }

      .cls-21 {
        fill: url(#未命名的渐变_377-5);
      }

      .cls-22 {
        fill: url(#未命名的渐变_377-6);
      }

      .cls-23 {
        fill: url(#未命名的渐变_377-7);
      }

      .cls-24 {
        fill: url(#未命名的渐变_377-8);
      }
    </style>
    <linearGradient id="未命名的渐变_306" data-name="未命名的渐变 306" x1="54.82" y1="26.33" x2="54.82" y2="131.69" gradientUnits="userSpaceOnUse">
      <stop offset="0.14" stop-color="#03e7f5"/>
      <stop offset="0.23" stop-color="#03d5f4" stop-opacity="0.9"/>
      <stop offset="0.57" stop-color="#0191f1" stop-opacity="0.53"/>
      <stop offset="0.8" stop-color="#0066f0" stop-opacity="0.29"/>
      <stop offset="0.91" stop-color="#0055ef" stop-opacity="0.2"/>
    </linearGradient>
    <linearGradient id="未命名的渐变_306-2" x1="62.69" y1="19.71" x2="62.69" y2="140.06" xlink:href="#未命名的渐变_306"/>
    <linearGradient id="未命名的渐变_306-3" x1="34.75" y1="68.87" x2="75.34" y2="17.91" xlink:href="#未命名的渐变_306"/>
    <linearGradient id="未命名的渐变_306-4" x1="97.03" y1="105.79" x2="97.03" y2="200.09" xlink:href="#未命名的渐变_306"/>
    <linearGradient id="未命名的渐变_306-5" x1="104.9" y1="98.95" x2="104.9" y2="206.68" xlink:href="#未命名的渐变_306"/>
    <linearGradient id="未命名的渐变_306-6" x1="76.97" y1="146.57" x2="117.56" y2="95.61" xlink:href="#未命名的渐变_306"/>
    <linearGradient id="未命名的渐变_306-7" x1="139.25" y1="79.2" x2="139.25" y2="152.16" xlink:href="#未命名的渐变_306"/>
    <linearGradient id="未命名的渐变_306-8" x1="147.12" y1="71.97" x2="147.12" y2="155.31" xlink:href="#未命名的渐变_306"/>
    <linearGradient id="未命名的渐变_306-9" x1="161.61" y1="159.88" x2="123.25" y2="159.88" xlink:href="#未命名的渐变_306"/>
    <linearGradient id="未命名的渐变_306-10" x1="119.39" y1="211.33" x2="81.04" y2="211.33" xlink:href="#未命名的渐变_306"/>
    <linearGradient id="未命名的渐变_306-11" x1="77.18" y1="144.74" x2="38.83" y2="144.74" xlink:href="#未命名的渐变_306"/>
    <linearGradient id="未命名的渐变_306-12" x1="12.61" y1="88.05" x2="12.61" y2="160" xlink:href="#未命名的渐变_306"/>
    <linearGradient id="未命名的渐变_306-13" x1="20.48" y1="80.8" x2="20.48" y2="162.99" xlink:href="#未命名的渐变_306"/>
    <linearGradient id="未命名的渐变_306-14" x1="16.54" y1="127.61" x2="16.54" y2="45.25" xlink:href="#未命名的渐变_306"/>
    <linearGradient id="未命名的渐变_306-15" x1="34.97" y1="167.55" x2="-3.39" y2="167.55" xlink:href="#未命名的渐变_306"/>
    <linearGradient id="未命名的渐变_306-16" x1="119.18" y1="116.6" x2="159.77" y2="65.64" xlink:href="#未命名的渐变_306"/>
    <linearGradient id="未命名的渐变_377" data-name="未命名的渐变 377" x1="16.54" y1="162.06" x2="16.54" y2="206.89" gradientUnits="userSpaceOnUse">
      <stop offset="0.14" stop-color="#03e7f5"/>
      <stop offset="0.31" stop-color="#02c5f4" stop-opacity="0.77"/>
      <stop offset="0.6" stop-color="#0189f1" stop-opacity="0.36"/>
      <stop offset="0.81" stop-color="#0064f0" stop-opacity="0.1"/>
      <stop offset="0.91" stop-color="#0055ef" stop-opacity="0"/>
    </linearGradient>
    <linearGradient id="未命名的渐变_377-2" x1="58.76" y1="139.26" x2="58.76" y2="184.08" xlink:href="#未命名的渐变_377"/>
    <linearGradient id="未命名的渐变_377-3" x1="100.97" y1="205.84" x2="100.97" y2="250.66" xlink:href="#未命名的渐变_377"/>
    <linearGradient id="未命名的渐变_377-4" x1="143.18" y1="154.39" x2="143.18" y2="199.22" xlink:href="#未命名的渐变_377"/>
    <linearGradient id="未命名的渐变_377-5" x1="-3143.2" y1="140.28" x2="-3143.2" y2="209.22" gradientTransform="translate(3160.61 -113.66)" xlink:href="#未命名的渐变_377"/>
    <linearGradient id="未命名的渐变_377-6" x1="-3184.54" y1="199.53" x2="-3184.54" y2="244.36" gradientTransform="translate(3243.29 -205.02)" xlink:href="#未命名的渐变_377"/>
    <linearGradient id="未命名的渐变_377-7" x1="-3227.49" y1="121.37" x2="-3227.49" y2="166.19" gradientTransform="translate(3329.19 -48.69)" xlink:href="#未命名的渐变_377"/>
    <linearGradient id="未命名的渐变_377-8" x1="-3269.71" y1="151.57" x2="-3269.71" y2="196.4" gradientTransform="translate(3413.64 -109.1)" xlink:href="#未命名的渐变_377"/>
  </defs>
  <g id="图层_2" data-name="图层 2">
    <g id="图层_1-2" data-name="图层 1">
      <g>
        <rect class="cls-1" x="42.21" y="43.03" width="25.22" height="106.01"/>
        <rect class="cls-2" x="50.08" y="34.44" width="25.22" height="106.01"/>
        <polygon class="cls-3" points="75.3 34.44 67.43 43.03 42.21 43.03 50.08 34.44 75.3 34.44"/>
        <rect class="cls-4" x="84.43" y="120.73" width="25.22" height="94.89"/>
        <rect class="cls-5" x="92.3" y="112.14" width="25.22" height="94.89"/>
        <polygon class="cls-6" points="117.51 112.14 109.64 120.73 84.43 120.73 92.3 112.14 117.51 112.14"/>
        <rect class="cls-7" x="126.64" y="90.76" width="25.22" height="73.41"/>
        <rect class="cls-8" x="134.51" y="82.17" width="25.22" height="73.41"/>
        <polygon class="cls-9" points="159.73 155.58 151.86 164.18 126.64 164.18 134.51 155.58 159.73 155.58"/>
        <polygon class="cls-10" points="117.51 207.03 109.64 215.62 84.43 215.62 92.3 207.03 117.51 207.03"/>
        <polygon class="cls-11" points="75.3 140.45 67.43 149.04 42.21 149.04 50.08 140.45 75.3 140.45"/>
        <g>
          <rect class="cls-12" y="99.45" width="25.22" height="72.39"/>
          <rect class="cls-13" x="7.87" y="90.86" width="25.22" height="72.39"/>
          <polygon class="cls-14" points="33.09 90.86 25.22 99.45 0 99.45 7.87 90.86 33.09 90.86"/>
          <polygon class="cls-15" points="33.09 163.25 25.22 171.84 0 171.84 7.87 163.25 33.09 163.25"/>
        </g>
        <polygon class="cls-16" points="159.73 82.17 151.86 90.76 126.64 90.76 134.51 82.17 159.73 82.17"/>
        <rect class="cls-17" x="14.51" y="167.55" width="4.07" height="39.48" rx="2.03"/>
        <rect class="cls-18" x="56.72" y="144.74" width="4.07" height="39.48" rx="2.03"/>
        <rect class="cls-19" x="98.94" y="211.33" width="4.07" height="39.48" rx="2.03"/>
        <rect class="cls-20" x="141.15" y="159.88" width="4.07" height="39.48" rx="2.03"/>
        <rect class="cls-21" x="15.38" y="35.06" width="4.07" height="60.72" rx="2.03" transform="translate(34.83 130.84) rotate(-180)"/>
        <rect class="cls-22" x="56.72" width="4.07" height="39.48" rx="2.03" transform="translate(117.51 39.48) rotate(-180)"/>
        <rect class="cls-23" x="99.67" y="78.16" width="4.07" height="39.48" rx="2.03" transform="translate(203.41 195.81) rotate(-180)"/>
        <rect class="cls-24" x="141.9" y="47.96" width="4.07" height="39.48" rx="2.03" transform="matrix(-1, 0, 0, -1, 287.86, 135.4)"/>
      </g>
    </g>
  </g>
</svg>
