<svg width="130" height="113" viewBox="0 0 130 113" fill="none" xmlns="http://www.w3.org/2000/svg">
<path d="M59.1601 19.26H47.8901V66.63H59.1601V19.26Z" fill="url(#paint0_linear_1413_58054)"/>
<path d="M62.6699 15.4199H51.3999V62.7899H62.6699V15.4199Z" fill="url(#paint1_linear_1413_58054)"/>
<path d="M62.6701 15.4199L59.1501 19.2599H47.8901L51.4001 15.4199H62.6701Z" fill="url(#paint2_linear_1413_58054)"/>
<path d="M78.02 53.98H66.75V96.38H78.02V53.98Z" fill="url(#paint3_linear_1413_58054)"/>
<path d="M81.54 50.1399H70.27V92.5399H81.54V50.1399Z" fill="url(#paint4_linear_1413_58054)"/>
<path d="M81.53 50.1399L78.02 53.9799H66.75L70.27 50.1399H81.53Z" fill="url(#paint5_linear_1413_58054)"/>
<path d="M96.8799 40.5901H85.6099V73.3901H96.8799V40.5901Z" fill="url(#paint6_linear_1413_58054)"/>
<path d="M100.4 36.75H89.1299V69.55H100.4V36.75Z" fill="url(#paint7_linear_1413_58054)"/>
<path opacity="0.6" d="M100.4 69.55L96.8799 73.39H85.6099L89.1299 69.55H100.4Z" fill="url(#paint8_linear_1413_58054)"/>
<path opacity="0.6" d="M81.53 92.54L78.02 96.38H66.75L70.27 92.54H81.53Z" fill="url(#paint9_linear_1413_58054)"/>
<path opacity="0.6" d="M62.6701 62.79L59.1501 66.63H47.8901L51.4001 62.79H62.6701Z" fill="url(#paint10_linear_1413_58054)"/>
<path d="M40.29 44.47H29.02V76.82H40.29V44.47Z" fill="url(#paint11_linear_1413_58054)"/>
<path d="M43.81 40.6299H32.54V72.9799H43.81V40.6299Z" fill="url(#paint12_linear_1413_58054)"/>
<path d="M43.81 40.6299L40.29 44.4699H29.02L32.54 40.6299H43.81Z" fill="url(#paint13_linear_1413_58054)"/>
<path opacity="0.6" d="M43.81 72.98L40.29 76.82H29.02L32.54 72.98H43.81Z" fill="url(#paint14_linear_1413_58054)"/>
<path d="M100.4 36.75L96.8799 40.59H85.6099L89.1299 36.75H100.4Z" fill="url(#paint15_linear_1413_58054)"/>
<path d="M1.22998 89.16L52.46 44.71L76.74 82.24L124.24 46.88" stroke="url(#paint16_linear_1413_58054)" stroke-width="1.34" stroke-miterlimit="10"/>
<path d="M77.1199 85.3199C78.7602 85.3199 80.0899 83.9902 80.0899 82.3499C80.0899 80.7096 78.7602 79.3799 77.1199 79.3799C75.4796 79.3799 74.1499 80.7096 74.1499 82.3499C74.1499 83.9902 75.4796 85.3199 77.1199 85.3199Z" fill="url(#paint17_linear_1413_58054)"/>
<path d="M77.11 86.92C76.2062 86.92 75.3226 86.652 74.5711 86.1498C73.8196 85.6477 73.2338 84.934 72.8879 84.0989C72.542 83.2638 72.4515 82.345 72.6279 81.4585C72.8042 80.572 73.2394 79.7577 73.8786 79.1186C74.5177 78.4794 75.332 78.0442 76.2185 77.8678C77.105 77.6915 78.0238 77.782 78.8589 78.1279C79.694 78.4738 80.4077 79.0595 80.9099 79.8111C81.412 80.5626 81.68 81.4462 81.68 82.35C81.6774 83.5613 81.1951 84.7221 80.3386 85.5786C79.4821 86.4351 78.3213 86.9174 77.11 86.92ZM77.11 78.14C76.275 78.14 75.4587 78.3878 74.7645 78.8519C74.0703 79.3161 73.5294 79.9757 73.2103 80.7474C72.8912 81.5191 72.8082 82.3681 72.9719 83.187C73.1355 84.0059 73.5384 84.7578 74.1296 85.3476C74.7208 85.9373 75.4737 86.3385 76.2929 86.5002C77.1122 86.6619 77.961 86.5769 78.7319 86.2559C79.5028 85.935 80.1612 85.3925 80.6237 84.6973C81.0862 84.002 81.332 83.1851 81.33 82.35C81.3248 81.2334 80.8781 80.1641 80.0876 79.3754C79.2971 78.5867 78.2267 78.1427 77.11 78.14Z" fill="url(#paint18_linear_1413_58054)"/>
<path d="M77.1201 84.1001C78.0866 84.1001 78.8701 83.3166 78.8701 82.3501C78.8701 81.3836 78.0866 80.6001 77.1201 80.6001C76.1536 80.6001 75.3701 81.3836 75.3701 82.3501C75.3701 83.3166 76.1536 84.1001 77.1201 84.1001Z" fill="url(#paint19_linear_1413_58054)"/>
<path d="M52.6199 48.8299C54.2602 48.8299 55.5899 47.5002 55.5899 45.8599C55.5899 44.2196 54.2602 42.8899 52.6199 42.8899C50.9796 42.8899 49.6499 44.2196 49.6499 45.8599C49.6499 47.5002 50.9796 48.8299 52.6199 48.8299Z" fill="url(#paint20_linear_1413_58054)"/>
<path d="M52.61 50.43C51.7062 50.43 50.8226 50.162 50.0711 49.6599C49.3196 49.1577 48.7338 48.444 48.3879 47.6089C48.042 46.7738 47.9515 45.855 48.1279 44.9685C48.3042 44.082 48.7394 43.2677 49.3786 42.6286C50.0177 41.9894 50.832 41.5542 51.7185 41.3779C52.605 41.2015 53.5238 41.292 54.3589 41.6379C55.194 41.9838 55.9077 42.5696 56.4099 43.3211C56.912 44.0726 57.18 44.9562 57.18 45.86C57.18 47.0721 56.6986 48.2345 55.8415 49.0915C54.9845 49.9486 53.8221 50.43 52.61 50.43ZM52.61 41.65C51.775 41.65 50.9587 41.8978 50.2645 42.3619C49.5703 42.8261 49.0294 43.4858 48.7103 44.2574C48.3912 45.0291 48.3082 45.8781 48.4719 46.697C48.6355 47.5159 49.0384 48.2678 49.6296 48.8576C50.2208 49.4473 50.9737 49.8485 51.7929 50.0102C52.6122 50.1719 53.461 50.0869 54.2319 49.7659C55.0028 49.445 55.6612 48.9026 56.1237 48.2073C56.5862 47.512 56.832 46.6951 56.83 45.86C56.8274 44.7426 56.3816 43.6718 55.5905 42.8825C54.7994 42.0933 53.7275 41.65 52.61 41.65Z" fill="url(#paint21_linear_1413_58054)"/>
<path d="M52.6201 47.6099C53.5866 47.6099 54.3701 46.8264 54.3701 45.8599C54.3701 44.8934 53.5866 44.1099 52.6201 44.1099C51.6536 44.1099 50.8701 44.8934 50.8701 45.8599C50.8701 46.8264 51.6536 47.6099 52.6201 47.6099Z" fill="url(#paint22_linear_1413_58054)"/>
<path d="M124.24 50.0999C125.963 50.0999 127.36 48.703 127.36 46.9799C127.36 45.2568 125.963 43.8599 124.24 43.8599C122.517 43.8599 121.12 45.2568 121.12 46.9799C121.12 48.703 122.517 50.0999 124.24 50.0999Z" fill="url(#paint23_linear_1413_58054)"/>
<path d="M124.23 51.7399C123.281 51.7399 122.353 51.4584 121.563 50.931C120.774 50.4035 120.159 49.6539 119.796 48.7768C119.432 47.8997 119.337 46.9346 119.522 46.0035C119.708 45.0724 120.165 44.2171 120.836 43.5458C121.507 42.8745 122.363 42.4173 123.294 42.2321C124.225 42.0469 125.19 42.142 126.067 42.5053C126.944 42.8686 127.694 43.4838 128.221 44.2732C128.749 45.0625 129.03 45.9905 129.03 46.9399C129.03 48.2129 128.524 49.4338 127.624 50.334C126.724 51.2342 125.503 51.7399 124.23 51.7399ZM124.23 42.5199C123.354 42.5199 122.497 42.78 121.768 43.2672C121.039 43.7544 120.471 44.4469 120.136 45.2569C119.801 46.067 119.714 46.9582 119.886 47.8178C120.058 48.6774 120.481 49.4668 121.101 50.0859C121.722 50.7051 122.512 51.1262 123.372 51.296C124.232 51.4658 125.123 51.3766 125.932 51.0398C126.742 50.703 127.433 50.1336 127.918 49.4038C128.404 48.674 128.662 47.8165 128.66 46.9399C128.647 45.7737 128.174 44.6597 127.345 43.8397C126.516 43.0197 125.396 42.5598 124.23 42.5599V42.5199Z" fill="url(#paint24_linear_1413_58054)"/>
<path d="M124.24 48.8199C125.256 48.8199 126.08 47.9961 126.08 46.9799C126.08 45.9637 125.256 45.1399 124.24 45.1399C123.224 45.1399 122.4 45.9637 122.4 46.9799C122.4 47.9961 123.224 48.8199 124.24 48.8199Z" fill="url(#paint25_linear_1413_58054)"/>
<path d="M37.3297 75.8099C37.3297 75.3073 36.9223 74.8999 36.4198 74.8999C35.9172 74.8999 35.5098 75.3073 35.5098 75.8099V91.6299C35.5098 92.1325 35.9172 92.5399 36.4198 92.5399C36.9223 92.5399 37.3297 92.1325 37.3297 91.6299V75.8099Z" fill="url(#paint26_linear_1413_58054)"/>
<path d="M56.1901 65.62C56.1901 65.1174 55.7827 64.71 55.2801 64.71C54.7775 64.71 54.3701 65.1174 54.3701 65.62V81.44C54.3701 81.9426 54.7775 82.35 55.2801 82.35C55.7827 82.35 56.1901 81.9426 56.1901 81.44V65.62Z" fill="url(#paint27_linear_1413_58054)"/>
<path d="M75.05 95.37C75.05 94.8674 74.6426 94.46 74.14 94.46C73.6374 94.46 73.23 94.8674 73.23 95.37V111.19C73.23 111.693 73.6374 112.1 74.14 112.1C74.6426 112.1 75.05 111.693 75.05 111.19V95.37Z" fill="url(#paint28_linear_1413_58054)"/>
<path d="M93.9201 72.38C93.9201 71.8774 93.5127 71.47 93.0101 71.47C92.5075 71.47 92.1001 71.8774 92.1001 72.38V88.2C92.1001 88.7026 92.5075 89.11 93.0101 89.11C93.5127 89.11 93.9201 88.7026 93.9201 88.2V72.38Z" fill="url(#paint29_linear_1413_58054)"/>
<path d="M35.8997 41.9201C35.8997 42.4227 36.3071 42.8301 36.8097 42.8301C37.3123 42.8301 37.7197 42.4227 37.7197 41.9201V16.6101C37.7197 16.1075 37.3123 15.7001 36.8097 15.7001C36.3071 15.7001 35.8997 16.1075 35.8997 16.6101V41.9201Z" fill="url(#paint30_linear_1413_58054)"/>
<path d="M54.3602 16.7599C54.3602 17.2625 54.7676 17.6699 55.2702 17.6699C55.7728 17.6699 56.1802 17.2625 56.1802 16.7599V0.93992C56.1802 0.437342 55.7728 0.0299206 55.2702 0.0299206C54.7676 0.0299206 54.3602 0.437342 54.3602 0.93992V16.7599Z" fill="url(#paint31_linear_1413_58054)"/>
<path d="M73.5599 51.6901C73.5599 52.1927 73.9673 52.6001 74.4699 52.6001C74.9725 52.6001 75.3799 52.1927 75.3799 51.6901V35.8701C75.3799 35.3675 74.9725 34.9601 74.4699 34.9601C73.9673 34.9601 73.5599 35.3675 73.5599 35.8701V51.6901Z" fill="url(#paint32_linear_1413_58054)"/>
<path d="M92.43 38.1901C92.43 38.6927 92.8374 39.1001 93.34 39.1001C93.8426 39.1001 94.25 38.6927 94.25 38.1901V22.3701C94.25 21.8675 93.8426 21.4601 93.34 21.4601C92.8374 21.4601 92.43 21.8675 92.43 22.3701V38.1901Z" fill="url(#paint33_linear_1413_58054)"/>
<defs>
<linearGradient id="paint0_linear_1413_58054" x1="53.5201" y1="11.8" x2="53.5201" y2="58.88" gradientUnits="userSpaceOnUse">
<stop offset="0.14" stop-color="#03E6F4"/>
<stop offset="0.22" stop-color="#03D5F3" stop-opacity="0.9"/>
<stop offset="0.56" stop-color="#0191F0" stop-opacity="0.53"/>
<stop offset="0.8" stop-color="#0066EF" stop-opacity="0.29"/>
<stop offset="0.91" stop-color="#0055EE" stop-opacity="0.2"/>
</linearGradient>
<linearGradient id="paint1_linear_1413_58054" x1="57.0399" y1="8.83992" x2="57.0399" y2="62.6199" gradientUnits="userSpaceOnUse">
<stop offset="0.14" stop-color="#03E6F4"/>
<stop offset="0.22" stop-color="#03D5F3" stop-opacity="0.9"/>
<stop offset="0.56" stop-color="#0191F0" stop-opacity="0.53"/>
<stop offset="0.8" stop-color="#0066EF" stop-opacity="0.29"/>
<stop offset="0.91" stop-color="#0055EE" stop-opacity="0.2"/>
</linearGradient>
<linearGradient id="paint2_linear_1413_58054" x1="44.5501" y1="30.81" x2="62.6903" y2="8.03999" gradientUnits="userSpaceOnUse">
<stop offset="0.14" stop-color="#03E6F4"/>
<stop offset="0.22" stop-color="#03D5F3" stop-opacity="0.9"/>
<stop offset="0.56" stop-color="#0191F0" stop-opacity="0.53"/>
<stop offset="0.8" stop-color="#0066EF" stop-opacity="0.29"/>
<stop offset="0.91" stop-color="#0055EE" stop-opacity="0.2"/>
</linearGradient>
<linearGradient id="paint3_linear_1413_58054" x1="72.38" y1="47.3" x2="72.38" y2="89.44" gradientUnits="userSpaceOnUse">
<stop offset="0.14" stop-color="#03E6F4"/>
<stop offset="0.22" stop-color="#03D5F3" stop-opacity="0.9"/>
<stop offset="0.56" stop-color="#0191F0" stop-opacity="0.53"/>
<stop offset="0.8" stop-color="#0066EF" stop-opacity="0.29"/>
<stop offset="0.91" stop-color="#0055EE" stop-opacity="0.2"/>
</linearGradient>
<linearGradient id="paint4_linear_1413_58054" x1="75.9" y1="44.2499" x2="75.9" y2="92.3899" gradientUnits="userSpaceOnUse">
<stop offset="0.14" stop-color="#03E6F4"/>
<stop offset="0.22" stop-color="#03D5F3" stop-opacity="0.9"/>
<stop offset="0.56" stop-color="#0191F0" stop-opacity="0.53"/>
<stop offset="0.8" stop-color="#0066EF" stop-opacity="0.29"/>
<stop offset="0.91" stop-color="#0055EE" stop-opacity="0.2"/>
</linearGradient>
<linearGradient id="paint5_linear_1413_58054" x1="63.42" y1="65.53" x2="81.5502" y2="42.76" gradientUnits="userSpaceOnUse">
<stop offset="0.14" stop-color="#03E6F4"/>
<stop offset="0.22" stop-color="#03D5F3" stop-opacity="0.9"/>
<stop offset="0.56" stop-color="#0191F0" stop-opacity="0.53"/>
<stop offset="0.8" stop-color="#0066EF" stop-opacity="0.29"/>
<stop offset="0.91" stop-color="#0055EE" stop-opacity="0.2"/>
</linearGradient>
<linearGradient id="paint6_linear_1413_58054" x1="91.2499" y1="35.4201" x2="91.2499" y2="68.0201" gradientUnits="userSpaceOnUse">
<stop offset="0.14" stop-color="#03E6F4"/>
<stop offset="0.22" stop-color="#03D5F3" stop-opacity="0.9"/>
<stop offset="0.56" stop-color="#0191F0" stop-opacity="0.53"/>
<stop offset="0.8" stop-color="#0066EF" stop-opacity="0.29"/>
<stop offset="0.91" stop-color="#0055EE" stop-opacity="0.2"/>
</linearGradient>
<linearGradient id="paint7_linear_1413_58054" x1="94.7599" y1="32.19" x2="94.7599" y2="69.43" gradientUnits="userSpaceOnUse">
<stop offset="0.14" stop-color="#03E6F4"/>
<stop offset="0.22" stop-color="#03D5F3" stop-opacity="0.9"/>
<stop offset="0.56" stop-color="#0191F0" stop-opacity="0.53"/>
<stop offset="0.8" stop-color="#0066EF" stop-opacity="0.29"/>
<stop offset="0.91" stop-color="#0055EE" stop-opacity="0.2"/>
</linearGradient>
<linearGradient id="paint8_linear_1413_58054" x1="101.24" y1="71.47" x2="84.0999" y2="71.47" gradientUnits="userSpaceOnUse">
<stop offset="0.14" stop-color="#03E6F4"/>
<stop offset="0.22" stop-color="#03D5F3" stop-opacity="0.9"/>
<stop offset="0.56" stop-color="#0191F0" stop-opacity="0.53"/>
<stop offset="0.8" stop-color="#0066EF" stop-opacity="0.29"/>
<stop offset="0.91" stop-color="#0055EE" stop-opacity="0.2"/>
</linearGradient>
<linearGradient id="paint9_linear_1413_58054" x1="82.37" y1="94.46" x2="65.24" y2="94.46" gradientUnits="userSpaceOnUse">
<stop offset="0.14" stop-color="#03E6F4"/>
<stop offset="0.22" stop-color="#03D5F3" stop-opacity="0.9"/>
<stop offset="0.56" stop-color="#0191F0" stop-opacity="0.53"/>
<stop offset="0.8" stop-color="#0066EF" stop-opacity="0.29"/>
<stop offset="0.91" stop-color="#0055EE" stop-opacity="0.2"/>
</linearGradient>
<linearGradient id="paint10_linear_1413_58054" x1="63.5101" y1="64.71" x2="46.3701" y2="64.71" gradientUnits="userSpaceOnUse">
<stop offset="0.14" stop-color="#03E6F4"/>
<stop offset="0.22" stop-color="#03D5F3" stop-opacity="0.9"/>
<stop offset="0.56" stop-color="#0191F0" stop-opacity="0.53"/>
<stop offset="0.8" stop-color="#0066EF" stop-opacity="0.29"/>
<stop offset="0.91" stop-color="#0055EE" stop-opacity="0.2"/>
</linearGradient>
<linearGradient id="paint11_linear_1413_58054" x1="34.66" y1="39.38" x2="34.66" y2="71.53" gradientUnits="userSpaceOnUse">
<stop offset="0.14" stop-color="#03E6F4"/>
<stop offset="0.22" stop-color="#03D5F3" stop-opacity="0.9"/>
<stop offset="0.56" stop-color="#0191F0" stop-opacity="0.53"/>
<stop offset="0.8" stop-color="#0066EF" stop-opacity="0.29"/>
<stop offset="0.91" stop-color="#0055EE" stop-opacity="0.2"/>
</linearGradient>
<linearGradient id="paint12_linear_1413_58054" x1="38.17" y1="36.1399" x2="38.17" y2="72.8599" gradientUnits="userSpaceOnUse">
<stop offset="0.14" stop-color="#03E6F4"/>
<stop offset="0.22" stop-color="#03D5F3" stop-opacity="0.9"/>
<stop offset="0.56" stop-color="#0191F0" stop-opacity="0.53"/>
<stop offset="0.8" stop-color="#0066EF" stop-opacity="0.29"/>
<stop offset="0.91" stop-color="#0055EE" stop-opacity="0.2"/>
</linearGradient>
<linearGradient id="paint13_linear_1413_58054" x1="36.42" y1="57.0499" x2="36.42" y2="20.2499" gradientUnits="userSpaceOnUse">
<stop offset="0.14" stop-color="#03E6F4"/>
<stop offset="0.22" stop-color="#03D5F3" stop-opacity="0.9"/>
<stop offset="0.56" stop-color="#0191F0" stop-opacity="0.53"/>
<stop offset="0.8" stop-color="#0066EF" stop-opacity="0.29"/>
<stop offset="0.91" stop-color="#0055EE" stop-opacity="0.2"/>
</linearGradient>
<linearGradient id="paint14_linear_1413_58054" x1="44.65" y1="74.9" x2="27.51" y2="74.9" gradientUnits="userSpaceOnUse">
<stop offset="0.14" stop-color="#03E6F4"/>
<stop offset="0.22" stop-color="#03D5F3" stop-opacity="0.9"/>
<stop offset="0.56" stop-color="#0191F0" stop-opacity="0.53"/>
<stop offset="0.8" stop-color="#0066EF" stop-opacity="0.29"/>
<stop offset="0.91" stop-color="#0055EE" stop-opacity="0.2"/>
</linearGradient>
<linearGradient id="paint15_linear_1413_58054" x1="82.2799" y1="52.13" x2="100.42" y2="29.36" gradientUnits="userSpaceOnUse">
<stop offset="0.14" stop-color="#03E6F4"/>
<stop offset="0.22" stop-color="#03D5F3" stop-opacity="0.9"/>
<stop offset="0.56" stop-color="#0191F0" stop-opacity="0.53"/>
<stop offset="0.8" stop-color="#0066EF" stop-opacity="0.29"/>
<stop offset="0.91" stop-color="#0055EE" stop-opacity="0.2"/>
</linearGradient>
<linearGradient id="paint16_linear_1413_58054" x1="124.64" y1="66.68" x2="0.789982" y2="66.68" gradientUnits="userSpaceOnUse">
<stop offset="0.14" stop-color="#03E6F4"/>
<stop offset="0.17" stop-color="#03E0F4" stop-opacity="0.97"/>
<stop offset="0.54" stop-color="#0196F1" stop-opacity="0.67"/>
<stop offset="0.79" stop-color="#0067EF" stop-opacity="0.47"/>
<stop offset="0.91" stop-color="#0055EE" stop-opacity="0.4"/>
</linearGradient>
<linearGradient id="paint17_linear_1413_58054" x1="74.1399" y1="82.3499" x2="80.0899" y2="82.3499" gradientUnits="userSpaceOnUse">
<stop offset="0.14" stop-color="#03E6F4"/>
<stop offset="0.22" stop-color="#03D5F3" stop-opacity="0.9"/>
<stop offset="0.56" stop-color="#0191F0" stop-opacity="0.53"/>
<stop offset="0.8" stop-color="#0066EF" stop-opacity="0.29"/>
<stop offset="0.91" stop-color="#0055EE" stop-opacity="0.2"/>
</linearGradient>
<linearGradient id="paint18_linear_1413_58054" x1="72.48" y1="78.82" x2="82.28" y2="86.3" gradientUnits="userSpaceOnUse">
<stop offset="0.14" stop-color="#03E6F4"/>
<stop offset="0.22" stop-color="#03D5F3" stop-opacity="0.9"/>
<stop offset="0.56" stop-color="#0191F0" stop-opacity="0.53"/>
<stop offset="0.8" stop-color="#0066EF" stop-opacity="0.29"/>
<stop offset="0.91" stop-color="#0055EE" stop-opacity="0.2"/>
</linearGradient>
<linearGradient id="paint19_linear_1413_58054" x1="75.3601" y1="82.3501" x2="78.8701" y2="82.3501" gradientUnits="userSpaceOnUse">
<stop offset="0.14" stop-color="#03E6F4"/>
<stop offset="0.22" stop-color="#03D5F3" stop-opacity="0.9"/>
<stop offset="0.56" stop-color="#0191F0" stop-opacity="0.53"/>
<stop offset="0.8" stop-color="#0066EF" stop-opacity="0.29"/>
<stop offset="0.91" stop-color="#0055EE" stop-opacity="0.2"/>
</linearGradient>
<linearGradient id="paint20_linear_1413_58054" x1="49.6399" y1="45.8599" x2="55.5899" y2="45.8599" gradientUnits="userSpaceOnUse">
<stop offset="0.14" stop-color="#03E6F4"/>
<stop offset="0.22" stop-color="#03D5F3" stop-opacity="0.9"/>
<stop offset="0.56" stop-color="#0191F0" stop-opacity="0.53"/>
<stop offset="0.8" stop-color="#0066EF" stop-opacity="0.29"/>
<stop offset="0.91" stop-color="#0055EE" stop-opacity="0.2"/>
</linearGradient>
<linearGradient id="paint21_linear_1413_58054" x1="47.98" y1="42.33" x2="57.78" y2="49.81" gradientUnits="userSpaceOnUse">
<stop offset="0.14" stop-color="#03E6F4"/>
<stop offset="0.22" stop-color="#03D5F3" stop-opacity="0.9"/>
<stop offset="0.56" stop-color="#0191F0" stop-opacity="0.53"/>
<stop offset="0.8" stop-color="#0066EF" stop-opacity="0.29"/>
<stop offset="0.91" stop-color="#0055EE" stop-opacity="0.2"/>
</linearGradient>
<linearGradient id="paint22_linear_1413_58054" x1="50.8701" y1="45.8599" x2="54.3701" y2="45.8599" gradientUnits="userSpaceOnUse">
<stop offset="0.14" stop-color="#03E6F4"/>
<stop offset="0.22" stop-color="#03D5F3" stop-opacity="0.9"/>
<stop offset="0.56" stop-color="#0191F0" stop-opacity="0.53"/>
<stop offset="0.8" stop-color="#0066EF" stop-opacity="0.29"/>
<stop offset="0.91" stop-color="#0055EE" stop-opacity="0.2"/>
</linearGradient>
<linearGradient id="paint23_linear_1413_58054" x1="121.11" y1="46.9799" x2="127.36" y2="46.9799" gradientUnits="userSpaceOnUse">
<stop offset="0.14" stop-color="#03E6F4"/>
<stop offset="0.22" stop-color="#03D5F3" stop-opacity="0.9"/>
<stop offset="0.56" stop-color="#0191F0" stop-opacity="0.53"/>
<stop offset="0.8" stop-color="#0066EF" stop-opacity="0.29"/>
<stop offset="0.91" stop-color="#0055EE" stop-opacity="0.2"/>
</linearGradient>
<linearGradient id="paint24_linear_1413_58054" x1="119.37" y1="43.2699" x2="129.66" y2="51.1299" gradientUnits="userSpaceOnUse">
<stop offset="0.14" stop-color="#03E6F4"/>
<stop offset="0.22" stop-color="#03D5F3" stop-opacity="0.9"/>
<stop offset="0.56" stop-color="#0191F0" stop-opacity="0.53"/>
<stop offset="0.8" stop-color="#0066EF" stop-opacity="0.29"/>
<stop offset="0.91" stop-color="#0055EE" stop-opacity="0.2"/>
</linearGradient>
<linearGradient id="paint25_linear_1413_58054" x1="122.39" y1="46.9799" x2="126.08" y2="46.9799" gradientUnits="userSpaceOnUse">
<stop offset="0.14" stop-color="#03E6F4"/>
<stop offset="0.22" stop-color="#03D5F3" stop-opacity="0.9"/>
<stop offset="0.56" stop-color="#0191F0" stop-opacity="0.53"/>
<stop offset="0.8" stop-color="#0066EF" stop-opacity="0.29"/>
<stop offset="0.91" stop-color="#0055EE" stop-opacity="0.2"/>
</linearGradient>
<linearGradient id="paint26_linear_1413_58054" x1="36.4198" y1="72.4499" x2="36.4198" y2="92.4799" gradientUnits="userSpaceOnUse">
<stop offset="0.14" stop-color="#03E6F4"/>
<stop offset="0.3" stop-color="#02C4F3" stop-opacity="0.77"/>
<stop offset="0.6" stop-color="#0189F0" stop-opacity="0.36"/>
<stop offset="0.81" stop-color="#0064EF" stop-opacity="0.1"/>
<stop offset="0.91" stop-color="#0055EE" stop-opacity="0"/>
</linearGradient>
<linearGradient id="paint27_linear_1413_58054" x1="55.2801" y1="62.26" x2="55.2801" y2="82.29" gradientUnits="userSpaceOnUse">
<stop offset="0.14" stop-color="#03E6F4"/>
<stop offset="0.3" stop-color="#02C4F3" stop-opacity="0.77"/>
<stop offset="0.6" stop-color="#0189F0" stop-opacity="0.36"/>
<stop offset="0.81" stop-color="#0064EF" stop-opacity="0.1"/>
<stop offset="0.91" stop-color="#0055EE" stop-opacity="0"/>
</linearGradient>
<linearGradient id="paint28_linear_1413_58054" x1="74.14" y1="92.01" x2="74.14" y2="112.04" gradientUnits="userSpaceOnUse">
<stop offset="0.14" stop-color="#03E6F4"/>
<stop offset="0.3" stop-color="#02C4F3" stop-opacity="0.77"/>
<stop offset="0.6" stop-color="#0189F0" stop-opacity="0.36"/>
<stop offset="0.81" stop-color="#0064EF" stop-opacity="0.1"/>
<stop offset="0.91" stop-color="#0055EE" stop-opacity="0"/>
</linearGradient>
<linearGradient id="paint29_linear_1413_58054" x1="93.0001" y1="69.02" x2="93.0001" y2="89.05" gradientUnits="userSpaceOnUse">
<stop offset="0.14" stop-color="#03E6F4"/>
<stop offset="0.3" stop-color="#02C4F3" stop-opacity="0.77"/>
<stop offset="0.6" stop-color="#0189F0" stop-opacity="0.36"/>
<stop offset="0.81" stop-color="#0064EF" stop-opacity="0.1"/>
<stop offset="0.91" stop-color="#0055EE" stop-opacity="0"/>
</linearGradient>
<linearGradient id="paint30_linear_1413_58054" x1="36.8097" y1="46.6001" x2="36.8097" y2="15.7901" gradientUnits="userSpaceOnUse">
<stop offset="0.14" stop-color="#03E6F4"/>
<stop offset="0.3" stop-color="#02C4F3" stop-opacity="0.77"/>
<stop offset="0.6" stop-color="#0189F0" stop-opacity="0.36"/>
<stop offset="0.81" stop-color="#0064EF" stop-opacity="0.1"/>
<stop offset="0.91" stop-color="#0055EE" stop-opacity="0"/>
</linearGradient>
<linearGradient id="paint31_linear_1413_58054" x1="55.2802" y1="20.1299" x2="55.2802" y2="0.0999199" gradientUnits="userSpaceOnUse">
<stop offset="0.14" stop-color="#03E6F4"/>
<stop offset="0.3" stop-color="#02C4F3" stop-opacity="0.77"/>
<stop offset="0.6" stop-color="#0189F0" stop-opacity="0.36"/>
<stop offset="0.81" stop-color="#0064EF" stop-opacity="0.1"/>
<stop offset="0.91" stop-color="#0055EE" stop-opacity="0"/>
</linearGradient>
<linearGradient id="paint32_linear_1413_58054" x1="74.4799" y1="55.0501" x2="74.4799" y2="35.0201" gradientUnits="userSpaceOnUse">
<stop offset="0.14" stop-color="#03E6F4"/>
<stop offset="0.3" stop-color="#02C4F3" stop-opacity="0.77"/>
<stop offset="0.6" stop-color="#0189F0" stop-opacity="0.36"/>
<stop offset="0.81" stop-color="#0064EF" stop-opacity="0.1"/>
<stop offset="0.91" stop-color="#0055EE" stop-opacity="0"/>
</linearGradient>
<linearGradient id="paint33_linear_1413_58054" x1="93.33" y1="41.5601" x2="93.33" y2="21.5301" gradientUnits="userSpaceOnUse">
<stop offset="0.14" stop-color="#03E6F4"/>
<stop offset="0.3" stop-color="#02C4F3" stop-opacity="0.77"/>
<stop offset="0.6" stop-color="#0189F0" stop-opacity="0.36"/>
<stop offset="0.81" stop-color="#0064EF" stop-opacity="0.1"/>
<stop offset="0.91" stop-color="#0055EE" stop-opacity="0"/>
</linearGradient>
</defs>
</svg>
