<svg width="210" height="118" viewBox="0 0 210 118" fill="none" xmlns="http://www.w3.org/2000/svg">
<path d="M73.6504 25.2413C76.44 22.356 79.9735 20.2988 83.8598 19.2973C87.7462 18.2957 91.8339 18.389 95.6705 19.5667C109.134 23.6656 113.073 36.3012 113.073 42.3747V81.8075C113.073 81.8075 119.167 82.6751 125.041 77.0504C126.921 75.0977 128.309 72.7252 129.09 70.1292C130.027 67.2559 130.476 64.2454 130.416 61.2235L130.167 40.1308C130.14 35.8544 129.368 31.6154 127.883 27.6049C125.36 20.8333 120.034 12.476 108.954 11.2793C89.2679 9.14506 77.7792 19.9756 73.6504 25.2413Z" fill="url(#paint0_linear_49183_115980)"/>
<path d="M137.477 91.5414C137.477 91.5414 127.624 102.512 114.17 98.4326C100.717 94.3537 96.7177 81.6882 96.7177 75.6147V36.2218C96.7177 36.2218 90.6243 35.3641 84.7503 40.9788C82.8609 42.9479 81.4722 45.3421 80.7013 47.9599C79.7644 50.8336 79.3127 53.8434 79.3649 56.8656L79.6342 77.9084C79.6614 82.1815 80.4342 86.4171 81.918 90.4244C84.4511 97.1561 89.7766 105.523 100.866 106.72C120.523 108.854 132.49 98.303 137.477 91.5414Z" fill="url(#paint1_linear_49183_115980)"/>
<path d="M96.5879 75.6143C96.5879 81.6878 100.577 94.3234 114.02 98.4323C127.464 102.541 137.327 91.541 137.327 91.541L137.038 91.92C143.438 83.4543 147.03 73.1987 147.31 62.5897C147.31 19.2775 119.366 11.3889 105.673 11C106.74 11 107.837 11.1097 108.954 11.2393C120.034 12.4361 125.36 20.7934 127.903 27.5251C129.387 31.5356 130.16 35.7746 130.187 40.051L130.436 61.1437C130.496 64.1656 130.047 67.1761 129.109 70.0494C128.329 72.6454 126.941 75.0179 125.06 76.9706C119.176 82.5953 113.093 81.7277 113.093 81.7277C100.757 81.5282 96.9369 69.0721 96.9369 69.0721H96.6378L96.5879 75.6143Z" fill="url(#paint2_linear_49183_115980)"/>
<path d="M84.6205 40.9787C90.5045 35.364 96.588 36.2216 96.588 36.2216C109.164 36.2216 113.043 48.8872 113.043 48.8872V42.3749C113.043 36.3014 109.054 23.6658 95.6406 19.5669C91.8154 18.3842 87.7379 18.2807 83.8577 19.2679C79.9774 20.2551 76.4452 22.2947 73.6503 25.1617C66.8477 33.8087 63.0021 44.412 62.6802 55.4095C62.6802 94.7724 85.7873 104.875 100.278 106.65C89.5172 105.274 84.3213 97.0662 81.7982 90.4243C80.3145 86.4169 79.5416 82.1814 79.5144 77.9083L79.2551 56.8156C79.2147 53.7878 79.6798 50.7745 80.6314 47.8999C81.3937 45.3092 82.761 42.9369 84.6205 40.9787V40.9787Z" fill="url(#paint3_linear_49183_115980)"/>
<defs>
<linearGradient id="paint0_linear_49183_115980" x1="127.165" y1="46.4137" x2="76.2932" y2="46.4137" gradientUnits="userSpaceOnUse">
<stop stop-color="#EDEDED"/>
<stop offset="1" stop-color="#EBEBEB" stop-opacity="0"/>
</linearGradient>
<linearGradient id="paint1_linear_49183_115980" x1="79.3549" y1="71.5856" x2="137.427" y2="71.5856" gradientUnits="userSpaceOnUse">
<stop stop-color="#EDEDED"/>
<stop offset="1" stop-color="#EBEBEB" stop-opacity="0"/>
</linearGradient>
<linearGradient id="paint2_linear_49183_115980" x1="121.969" y1="95.0714" x2="121.969" y2="9.92293" gradientUnits="userSpaceOnUse">
<stop stop-color="#EDEDED"/>
<stop offset="1" stop-color="#EBEBEB" stop-opacity="0"/>
</linearGradient>
<linearGradient id="paint3_linear_49183_115980" x1="87.5725" y1="32.6513" x2="88.869" y2="104.197" gradientUnits="userSpaceOnUse">
<stop stop-color="#EDEDED"/>
<stop offset="1" stop-color="#EBEBEB" stop-opacity="0"/>
</linearGradient>
</defs>
</svg>
