<svg width="210" height="118" viewBox="0 0 210 118" fill="none" xmlns="http://www.w3.org/2000/svg">
<path d="M57.875 27.58L56.0698 25.7747C56.0698 25.7747 32 51.7501 32 64.3867C32 77.0234 54.6657 73.0117 81.4434 63.2835C113.938 51.5495 192.967 14.4419 192.967 14.4419L209.916 0C209.916 0 138.509 35.9041 109.525 47.939C81.9448 59.4725 41.1265 76.7225 35.7108 65.0888C35.2093 63.8853 35.109 62.5815 35.4099 61.378C36.3125 57.6672 40.2238 47.6382 57.875 27.58Z" fill="white"/>
<path opacity="0.4" d="M64.795 65.0889C69.9098 57.3665 81.343 48.1397 81.343 48.1397L78.5349 45.833C64.1933 58.2691 60.5828 64.3868 59.6802 66.4929C61.2848 66.0918 62.9898 65.5903 64.795 65.0889Z" fill="white"/>
<path opacity="0.8" d="M37.5155 67.2953C38.3178 67.8971 39.421 68.2982 40.6245 68.5991C40.2234 65.8913 41.3266 56.5642 63.5911 32.7953L61.2844 30.4886C61.1841 30.3883 37.2146 55.461 37.5155 67.2953Z" fill="white"/>
<path opacity="0.65" d="M43.2322 68.8998C44.3354 69.0001 45.4386 69.0001 46.7423 68.8998C46.5418 66.9943 47.9458 59.5727 69.4081 37.609L66.9008 35.5029C66.9008 35.5029 42.5301 59.8736 43.2322 68.8998Z" fill="white"/>
<path opacity="0.55" d="M54.5652 67.6965C55.167 65.5904 57.7745 58.8709 75.4257 43.025L72.8182 40.7183C72.8182 40.7183 51.8574 60.4756 50.353 68.4988C51.5565 68.2982 53.3618 67.8971 54.5652 67.6965Z" fill="white"/>
<path d="M40.7251 75.5193C40.7251 75.5193 72.7179 77.7256 156.862 43.7271L146.03 52.9538C146.131 53.0541 71.5144 81.7373 40.7251 75.5193Z" fill="url(#paint0_linear_49442_117404)"/>
<path d="M48.8486 80.4334C48.8486 80.4334 97.3894 78.929 126.373 69.4014L119.353 75.6194C119.253 75.5191 69.1074 86.1499 48.8486 80.4334Z" fill="url(#paint1_linear_49442_117404)"/>
<path d="M55.167 85.5482C55.167 85.5482 96.6874 87.7546 106.817 85.3477L101.702 89.961C101.802 89.961 61.385 90.1616 55.167 85.5482Z" fill="url(#paint2_linear_49442_117404)"/>
<path d="M64.6948 91.8667C64.6948 91.8667 94.4812 94.9757 95.785 94.4743L91.7734 97.9844C91.8736 98.0847 78.4347 97.8842 64.6948 91.8667Z" fill="url(#paint3_linear_49442_117404)"/>
<defs>
<linearGradient id="paint0_linear_49442_117404" x1="118.243" y1="69.2668" x2="53.9771" y2="37.472" gradientUnits="userSpaceOnUse">
<stop stop-color="#EDEDED"/>
<stop offset="0.9984" stop-color="#EBEBEB" stop-opacity="0"/>
</linearGradient>
<linearGradient id="paint1_linear_49442_117404" x1="109.972" y1="85.9854" x2="45.7057" y2="54.1907" gradientUnits="userSpaceOnUse">
<stop stop-color="#EDEDED"/>
<stop offset="0.9984" stop-color="#EBEBEB" stop-opacity="0"/>
</linearGradient>
<linearGradient id="paint2_linear_49442_117404" x1="104.504" y1="97.0377" x2="40.2378" y2="65.2429" gradientUnits="userSpaceOnUse">
<stop stop-color="#EDEDED"/>
<stop offset="0.9984" stop-color="#EBEBEB" stop-opacity="0"/>
</linearGradient>
<linearGradient id="paint3_linear_49442_117404" x1="101.253" y1="103.608" x2="36.9874" y2="71.8134" gradientUnits="userSpaceOnUse">
<stop stop-color="#EDEDED"/>
<stop offset="0.9984" stop-color="#EBEBEB" stop-opacity="0"/>
</linearGradient>
</defs>
</svg>
