<svg width="210" height="118" viewBox="0 0 210 118" fill="none" xmlns="http://www.w3.org/2000/svg">
<path d="M25.9121 91.5546V47.0001C25.9125 46.8577 25.8719 46.7182 25.7953 46.5982C25.7186 46.4782 25.609 46.3827 25.4796 46.3232C25.3502 46.2638 25.2065 46.2427 25.0655 46.2627C24.9244 46.2826 24.7922 46.3427 24.6843 46.4358L17.9319 52.3368C17.2352 52.9407 16.3801 53.3322 15.4677 53.465C14.5554 53.5978 13.6241 53.4662 12.7842 53.0859C11.9444 52.7055 11.2312 52.0924 10.7291 51.3191C10.2271 50.5458 9.95729 49.6448 9.95166 48.7229V37.6833C9.9511 36.9936 10.0994 36.3119 10.3865 35.6848C10.6736 35.0577 11.0926 34.4999 11.615 34.0496L24.5457 22.812C25.4225 22.0521 26.5439 21.6337 27.7041 21.6338H38.3081C39.5843 21.6338 40.8082 22.1408 41.7106 23.0432C42.613 23.9456 43.12 25.1695 43.12 26.4457V91.5546C43.1213 92.1873 42.9978 92.8141 42.7565 93.399C42.5153 93.984 42.1611 94.5156 41.7141 94.9635C41.2672 95.4114 40.7363 95.7667 40.1518 96.0091C39.5674 96.2516 38.9408 96.3764 38.3081 96.3764H30.7437C30.1093 96.379 29.4807 96.2561 28.8939 96.0148C28.3072 95.7736 27.774 95.4187 27.3249 94.9705C26.8759 94.5224 26.5198 93.9899 26.2774 93.4036C26.0349 92.8174 25.9107 92.189 25.9121 91.5546V91.5546Z" fill="url(#paint0_linear_49183_115948)"/>
<path d="M70.7242 97C58.338 97 46.6846 89.0792 46.6846 73.703V44.3069C46.6846 28.9208 58.338 21 70.7242 21C83.1103 21 94.7638 28.9208 94.7638 44.3069V73.703C94.7638 89.1287 83.1103 97 70.7242 97ZM77.546 44.3069C77.546 39.0594 74.3974 36.5347 70.7242 36.5347C67.0509 36.5347 63.9024 39.0594 63.9024 44.3069V73.802C63.9024 79.0495 67.0509 81.4653 70.7242 81.4653C74.3974 81.4653 77.546 79.0495 77.546 73.802V44.3069Z" fill="url(#paint1_linear_49183_115948)"/>
<path d="M121.912 97C109.526 97 97.8726 89.0792 97.8726 73.703V44.3069C97.8726 28.9208 109.526 21 121.912 21C134.298 21 145.952 28.9208 145.952 44.3069V73.703C145.952 89.1287 134.298 97 121.912 97ZM128.764 44.3069C128.764 39.0594 125.615 36.5347 121.942 36.5347C118.269 36.5347 115.12 39.0594 115.12 44.3069V73.802C115.12 79.0495 118.269 81.4653 121.942 81.4653C125.615 81.4653 128.764 79.0495 128.764 73.802V44.3069Z" fill="url(#paint2_linear_49183_115948)"/>
<path d="M188.724 70.5046L197.744 61.4848C198.545 60.6849 199.18 59.7349 199.613 58.6892C200.047 57.6436 200.27 56.5227 200.27 55.3908C200.27 54.2588 200.047 53.138 199.613 52.0923C199.18 51.0467 198.545 50.0967 197.744 49.2967V49.2967C196.945 48.4962 195.995 47.8611 194.951 47.4278C193.906 46.9945 192.786 46.7715 191.655 46.7715C190.524 46.7715 189.404 46.9945 188.359 47.4278C187.314 47.8611 186.365 48.4962 185.566 49.2967L176.536 58.3165L167.516 49.2967C166.716 48.4964 165.766 47.8616 164.72 47.4285C163.674 46.9954 162.554 46.7725 161.422 46.7725C160.29 46.7725 159.17 46.9954 158.124 47.4285C157.078 47.8616 156.128 48.4964 155.328 49.2967C154.528 50.097 153.893 51.0471 153.46 52.0927C153.027 53.1383 152.804 54.259 152.804 55.3908C152.804 56.5226 153.027 57.6432 153.46 58.6889C153.893 59.7345 154.528 60.6846 155.328 61.4848L164.407 70.5046L155.377 79.5244C154.577 80.3244 153.941 81.2744 153.508 82.3201C153.074 83.3657 152.851 84.4866 152.851 85.6185C152.851 86.7504 153.074 87.8713 153.508 88.9169C153.941 89.9626 154.577 90.9126 155.377 91.7126V91.7126C156.177 92.5134 157.127 93.1487 158.173 93.5821C159.219 94.0155 160.34 94.2386 161.472 94.2386C162.603 94.2386 163.724 94.0155 164.77 93.5821C165.816 93.1487 166.766 92.5134 167.566 91.7126L176.585 82.6928L185.615 91.7126C186.414 92.5131 187.363 93.1481 188.408 93.5815C189.453 94.0148 190.573 94.2378 191.704 94.2378C192.835 94.2378 193.955 94.0148 195 93.5815C196.045 93.1481 196.994 92.5131 197.793 91.7126V91.7126C198.594 90.9126 199.229 89.9626 199.663 88.9169C200.096 87.8713 200.319 86.7504 200.319 85.6185C200.319 84.4866 200.096 83.3657 199.663 82.3201C199.229 81.2744 198.594 80.3244 197.793 79.5244L188.724 70.5046Z" fill="url(#paint3_linear_49183_115948)"/>
<path d="M25.9121 91.5546V47.0001C25.9125 46.8577 25.8719 46.7182 25.7953 46.5982C25.7186 46.4782 25.609 46.3827 25.4796 46.3232C25.3502 46.2638 25.2065 46.2427 25.0655 46.2627C24.9244 46.2826 24.7922 46.3427 24.6843 46.4358L17.9319 52.3368C17.2352 52.9407 16.3801 53.3322 15.4677 53.465C14.5554 53.5978 13.6241 53.4662 12.7842 53.0859C11.9444 52.7055 11.2312 52.0924 10.7291 51.3191C10.2271 50.5458 9.95729 49.6448 9.95166 48.7229V37.6833C9.9511 36.9936 10.0994 36.3119 10.3865 35.6848C10.6736 35.0577 11.0926 34.4999 11.615 34.0496L24.5457 22.812C25.4225 22.0521 26.5439 21.6337 27.7041 21.6338H38.3081C39.5843 21.6338 40.8082 22.1408 41.7106 23.0432C42.613 23.9456 43.12 25.1695 43.12 26.4457V91.5546C43.1213 92.1873 42.9978 92.8141 42.7565 93.399C42.5153 93.984 42.1611 94.5156 41.7141 94.9635C41.2672 95.4114 40.7363 95.7667 40.1518 96.0091C39.5674 96.2516 38.9408 96.3764 38.3081 96.3764H30.7437C30.1093 96.379 29.4807 96.2561 28.8939 96.0148C28.3072 95.7736 27.774 95.4187 27.3249 94.9705C26.8759 94.5224 26.5198 93.9899 26.2774 93.4036C26.0349 92.8174 25.9107 92.189 25.9121 91.5546V91.5546Z" fill="url(#paint4_linear_49183_115948)"/>
<path d="M70.7242 97C58.338 97 46.6846 89.0792 46.6846 73.703V44.3069C46.6846 28.9208 58.338 21 70.7242 21C83.1103 21 94.7638 28.9208 94.7638 44.3069V73.703C94.7638 89.1287 83.1103 97 70.7242 97ZM77.546 44.3069C77.546 39.0594 74.3974 36.5347 70.7242 36.5347C67.0509 36.5347 63.9024 39.0594 63.9024 44.3069V73.802C63.9024 79.0495 67.0509 81.4653 70.7242 81.4653C74.3974 81.4653 77.546 79.0495 77.546 73.802V44.3069Z" fill="url(#paint5_linear_49183_115948)"/>
<path d="M121.912 97C109.526 97 97.8726 89.0792 97.8726 73.703V44.3069C97.8726 28.9208 109.526 21 121.912 21C134.298 21 145.952 28.9208 145.952 44.3069V73.703C145.952 89.1287 134.298 97 121.912 97ZM128.764 44.3069C128.764 39.0594 125.615 36.5347 121.942 36.5347C118.269 36.5347 115.12 39.0594 115.12 44.3069V73.802C115.12 79.0495 118.269 81.4653 121.942 81.4653C125.615 81.4653 128.764 79.0495 128.764 73.802V44.3069Z" fill="url(#paint6_linear_49183_115948)"/>
<path d="M188.724 70.5046L197.744 61.4848C198.545 60.6849 199.18 59.7349 199.613 58.6892C200.047 57.6436 200.27 56.5227 200.27 55.3908C200.27 54.2588 200.047 53.138 199.613 52.0923C199.18 51.0467 198.545 50.0967 197.744 49.2967V49.2967C196.945 48.4962 195.995 47.8611 194.951 47.4278C193.906 46.9945 192.786 46.7715 191.655 46.7715C190.524 46.7715 189.404 46.9945 188.359 47.4278C187.314 47.8611 186.365 48.4962 185.566 49.2967L176.536 58.3165L167.516 49.2967C166.716 48.4964 165.766 47.8616 164.72 47.4285C163.674 46.9954 162.554 46.7725 161.422 46.7725C160.29 46.7725 159.17 46.9954 158.124 47.4285C157.078 47.8616 156.128 48.4964 155.328 49.2967C154.528 50.097 153.893 51.0471 153.46 52.0927C153.027 53.1383 152.804 54.259 152.804 55.3908C152.804 56.5226 153.027 57.6432 153.46 58.6889C153.893 59.7345 154.528 60.6846 155.328 61.4848L164.407 70.5046L155.377 79.5244C154.577 80.3244 153.941 81.2744 153.508 82.3201C153.074 83.3657 152.851 84.4866 152.851 85.6185C152.851 86.7504 153.074 87.8713 153.508 88.9169C153.941 89.9626 154.577 90.9126 155.377 91.7126V91.7126C156.177 92.5134 157.127 93.1487 158.173 93.5821C159.219 94.0155 160.34 94.2386 161.472 94.2386C162.603 94.2386 163.724 94.0155 164.77 93.5821C165.816 93.1487 166.766 92.5134 167.566 91.7126L176.585 82.6928L185.615 91.7126C186.414 92.5131 187.363 93.1481 188.408 93.5815C189.453 94.0148 190.573 94.2378 191.704 94.2378C192.835 94.2378 193.955 94.0148 195 93.5815C196.045 93.1481 196.994 92.5131 197.793 91.7126V91.7126C198.594 90.9126 199.229 89.9626 199.663 88.9169C200.096 87.8713 200.319 86.7504 200.319 85.6185C200.319 84.4866 200.096 83.3657 199.663 82.3201C199.229 81.2744 198.594 80.3244 197.793 79.5244L188.724 70.5046Z" fill="url(#paint7_linear_49183_115948)"/>
<defs>
<linearGradient id="paint0_linear_49183_115948" x1="22.1398" y1="14.5447" x2="43.2388" y2="125.01" gradientUnits="userSpaceOnUse">
<stop stop-color="#EDEDED"/>
<stop offset="1" stop-color="#EBEBEB" stop-opacity="0"/>
</linearGradient>
<linearGradient id="paint1_linear_49183_115948" x1="60.8232" y1="7.15842" x2="81.9222" y2="117.624" gradientUnits="userSpaceOnUse">
<stop stop-color="#EDEDED"/>
<stop offset="1" stop-color="#EBEBEB" stop-opacity="0"/>
</linearGradient>
<linearGradient id="paint2_linear_49183_115948" x1="110.209" y1="-2.27723" x2="131.308" y2="108.188" gradientUnits="userSpaceOnUse">
<stop stop-color="#EDEDED"/>
<stop offset="1" stop-color="#EBEBEB" stop-opacity="0"/>
</linearGradient>
<linearGradient id="paint3_linear_49183_115948" x1="162.674" y1="-2.09932" x2="183.773" y2="108.366" gradientUnits="userSpaceOnUse">
<stop stop-color="#EDEDED"/>
<stop offset="1" stop-color="#EBEBEB" stop-opacity="0"/>
</linearGradient>
<linearGradient id="paint4_linear_49183_115948" x1="22.1398" y1="14.5447" x2="43.2388" y2="125.01" gradientUnits="userSpaceOnUse">
<stop stop-color="#EDEDED"/>
<stop offset="1" stop-color="#EBEBEB" stop-opacity="0"/>
</linearGradient>
<linearGradient id="paint5_linear_49183_115948" x1="60.8232" y1="7.15842" x2="81.9222" y2="117.624" gradientUnits="userSpaceOnUse">
<stop stop-color="#EDEDED"/>
<stop offset="1" stop-color="#EBEBEB" stop-opacity="0"/>
</linearGradient>
<linearGradient id="paint6_linear_49183_115948" x1="110.209" y1="-2.27723" x2="131.308" y2="108.188" gradientUnits="userSpaceOnUse">
<stop stop-color="#EDEDED"/>
<stop offset="1" stop-color="#EBEBEB" stop-opacity="0"/>
</linearGradient>
<linearGradient id="paint7_linear_49183_115948" x1="162.674" y1="-2.09932" x2="183.773" y2="108.366" gradientUnits="userSpaceOnUse">
<stop stop-color="#EDEDED"/>
<stop offset="1" stop-color="#EBEBEB" stop-opacity="0"/>
</linearGradient>
</defs>
</svg>
