<svg width="210" height="118" viewBox="0 0 210 118" fill="none" xmlns="http://www.w3.org/2000/svg">
<path d="M44.8047 19L98.8999 38.7143C100.424 39.2857 101.471 40.7143 101.471 42.4286V54.4286L51.6618 36.4286C50.2333 35.9524 49.1856 34.8095 48.8047 33.2857L44.8047 19Z" fill="url(#paint0_linear_49442_117402)"/>
<path d="M58.2329 46.333L104.995 63.3806V78.1425L65.0901 63.4759C63.7567 62.9997 62.7091 61.8568 62.3281 60.5235L58.2329 46.333Z" fill="url(#paint1_linear_49442_117402)"/>
<path d="M71.6611 73.4756L75.6611 87.8565C76.0421 89.0946 76.9945 90.1422 78.2326 90.6184L101.375 98.9994V86.9042C101.375 85.1899 100.328 83.7613 98.7087 83.1899L71.6611 73.4756Z" fill="url(#paint2_linear_49442_117402)"/>
<path d="M165.186 19L111.09 38.7143C109.567 39.2857 108.519 40.7143 108.519 42.4286V54.4286L158.329 36.4286C159.757 35.9524 160.805 34.8095 161.186 33.2857L165.186 19Z" fill="url(#paint3_linear_49442_117402)"/>
<path d="M151.757 46.333L104.995 63.3806V78.1425L144.9 63.4759C146.233 62.9997 147.281 61.8568 147.662 60.5235L151.757 46.333Z" fill="url(#paint4_linear_49442_117402)"/>
<path d="M138.233 73.4756L134.233 87.8565C133.852 89.0946 132.9 90.1422 131.662 90.6184L108.519 98.9994V86.9042C108.519 85.1899 109.567 83.7613 111.186 83.1899L138.233 73.4756Z" fill="url(#paint5_linear_49442_117402)"/>
<path d="M44.8047 19L98.8999 38.7143C100.424 39.2857 101.471 40.7143 101.471 42.4286V54.4286L51.6618 36.4286C50.2333 35.9524 49.1856 34.8095 48.8047 33.2857L44.8047 19Z" fill="url(#paint6_linear_49442_117402)"/>
<path d="M58.2329 46.333L104.995 63.3806V78.1425L65.0901 63.4759C63.7567 62.9997 62.7091 61.8568 62.3281 60.5235L58.2329 46.333Z" fill="url(#paint7_linear_49442_117402)"/>
<path d="M71.6611 73.4756L75.6611 87.8565C76.0421 89.0946 76.9945 90.1422 78.2326 90.6184L101.375 98.9994V86.9042C101.375 85.1899 100.328 83.7613 98.7087 83.1899L71.6611 73.4756Z" fill="url(#paint8_linear_49442_117402)"/>
<path d="M165.186 19L111.09 38.7143C109.567 39.2857 108.519 40.7143 108.519 42.4286V54.4286L158.329 36.4286C159.757 35.9524 160.805 34.8095 161.186 33.2857L165.186 19Z" fill="url(#paint9_linear_49442_117402)"/>
<path d="M151.757 46.333L104.995 63.3806V78.1425L144.9 63.4759C146.233 62.9997 147.281 61.8568 147.662 60.5235L151.757 46.333Z" fill="url(#paint10_linear_49442_117402)"/>
<path d="M138.233 73.4756L134.233 87.8565C133.852 89.0946 132.9 90.1422 131.662 90.6184L108.519 98.9994V86.9042C108.519 85.1899 109.567 83.7613 111.186 83.1899L138.233 73.4756Z" fill="url(#paint11_linear_49442_117402)"/>
<defs>
<linearGradient id="paint0_linear_49442_117402" x1="68.1009" y1="12.4939" x2="81.3864" y2="60.0649" gradientUnits="userSpaceOnUse">
<stop stop-color="#EDEDED"/>
<stop offset="0.9984" stop-color="#EBEBEB" stop-opacity="0"/>
</linearGradient>
<linearGradient id="paint1_linear_49442_117402" x1="77.7294" y1="40.8985" x2="89.3541" y2="82.5225" gradientUnits="userSpaceOnUse">
<stop stop-color="#EDEDED"/>
<stop offset="0.9984" stop-color="#EBEBEB" stop-opacity="0"/>
</linearGradient>
<linearGradient id="paint2_linear_49442_117402" x1="83.8128" y1="70.133" x2="92.5685" y2="101.484" gradientUnits="userSpaceOnUse">
<stop stop-color="#EDEDED"/>
<stop offset="0.9984" stop-color="#EBEBEB" stop-opacity="0"/>
</linearGradient>
<linearGradient id="paint3_linear_49442_117402" x1="141.878" y1="12.4939" x2="128.592" y2="60.0649" gradientUnits="userSpaceOnUse">
<stop stop-color="#EDEDED"/>
<stop offset="0.9984" stop-color="#EBEBEB" stop-opacity="0"/>
</linearGradient>
<linearGradient id="paint4_linear_49442_117402" x1="132.249" y1="40.8985" x2="120.624" y2="82.5225" gradientUnits="userSpaceOnUse">
<stop stop-color="#EDEDED"/>
<stop offset="0.9984" stop-color="#EBEBEB" stop-opacity="0"/>
</linearGradient>
<linearGradient id="paint5_linear_49442_117402" x1="126.165" y1="70.133" x2="117.41" y2="101.484" gradientUnits="userSpaceOnUse">
<stop stop-color="#EDEDED"/>
<stop offset="0.9984" stop-color="#EBEBEB" stop-opacity="0"/>
</linearGradient>
<linearGradient id="paint6_linear_49442_117402" x1="68.1009" y1="12.4939" x2="81.3864" y2="60.0649" gradientUnits="userSpaceOnUse">
<stop stop-color="#EDEDED"/>
<stop offset="0.9984" stop-color="#EBEBEB" stop-opacity="0"/>
</linearGradient>
<linearGradient id="paint7_linear_49442_117402" x1="77.7294" y1="40.8985" x2="89.3541" y2="82.5225" gradientUnits="userSpaceOnUse">
<stop stop-color="#EDEDED"/>
<stop offset="0.9984" stop-color="#EBEBEB" stop-opacity="0"/>
</linearGradient>
<linearGradient id="paint8_linear_49442_117402" x1="83.8128" y1="70.133" x2="92.5685" y2="101.484" gradientUnits="userSpaceOnUse">
<stop stop-color="#EDEDED"/>
<stop offset="0.9984" stop-color="#EBEBEB" stop-opacity="0"/>
</linearGradient>
<linearGradient id="paint9_linear_49442_117402" x1="141.878" y1="12.4939" x2="128.592" y2="60.0649" gradientUnits="userSpaceOnUse">
<stop stop-color="#EDEDED"/>
<stop offset="0.9984" stop-color="#EBEBEB" stop-opacity="0"/>
</linearGradient>
<linearGradient id="paint10_linear_49442_117402" x1="132.249" y1="40.8985" x2="120.624" y2="82.5225" gradientUnits="userSpaceOnUse">
<stop stop-color="#EDEDED"/>
<stop offset="0.9984" stop-color="#EBEBEB" stop-opacity="0"/>
</linearGradient>
<linearGradient id="paint11_linear_49442_117402" x1="126.165" y1="70.133" x2="117.41" y2="101.484" gradientUnits="userSpaceOnUse">
<stop stop-color="#EDEDED"/>
<stop offset="0.9984" stop-color="#EBEBEB" stop-opacity="0"/>
</linearGradient>
</defs>
</svg>
