<svg width="210" height="118" viewBox="0 0 210 118" fill="none" xmlns="http://www.w3.org/2000/svg">
<path d="M82.3335 30.5327L88.7364 37.1233C90.5421 38.9879 92.7041 40.4705 95.0941 41.4831C97.4841 42.4956 100.053 43.0173 102.649 43.0173C105.244 43.0173 107.814 42.4956 110.204 41.4831C112.594 40.4705 114.756 38.9879 116.561 37.1233L133.043 20.0589L122.579 10L108.745 23.5172C107.066 25.1604 104.805 26.0724 102.456 26.0539C100.106 26.0354 97.8595 25.0879 96.2064 23.4184L92.5208 19.6537L82.3335 30.5327Z" fill="url(#paint0_linear_49183_115993)"/>
<path d="M131.659 39.3564L125.069 45.7494C123.205 47.5567 121.723 49.7198 120.711 52.1105C119.7 54.5012 119.178 57.0708 119.178 59.6668C119.178 62.2628 119.7 64.8324 120.711 67.2231C121.723 69.6138 123.205 71.777 125.069 73.5842L142.084 90.0361L152.143 79.5622L138.625 65.7288C136.982 64.0496 136.07 61.7883 136.089 59.4389C136.107 57.0895 137.055 54.8429 138.724 53.1898L142.528 49.524L131.659 39.3564Z" fill="url(#paint1_linear_49183_115993)"/>
<path d="M123.596 87.428L117.193 80.8374C115.388 78.9728 113.225 77.4901 110.835 76.4776C108.446 75.4651 105.876 74.9434 103.281 74.9434C100.685 74.9434 98.116 75.4651 95.726 76.4776C93.3361 77.4901 91.174 78.9728 89.3683 80.8374L72.877 97.9414L83.3508 108L97.1842 94.483C98.8634 92.8398 101.125 91.9278 103.474 91.9463C105.823 91.9648 108.07 92.9123 109.723 94.5818L113.438 98.3465L123.596 87.428Z" fill="url(#paint2_linear_49183_115993)"/>
<path d="M75.1201 80.2146L81.7107 73.8117C83.5753 72.0061 85.0579 69.844 86.0705 67.454C87.083 65.064 87.6047 62.4949 87.6047 59.8993C87.6047 57.3037 87.083 54.7346 86.0705 52.3446C85.0579 49.9546 83.5753 47.7925 81.7107 45.9869L64.6463 29.5054L54.5874 39.9693L68.1046 53.8027C69.7418 55.4811 70.65 57.7381 70.6315 60.0827C70.613 62.4272 69.6693 64.6697 68.0058 66.322L64.2411 70.0273L75.1201 80.2146Z" fill="url(#paint3_linear_49183_115993)"/>
<path d="M114.634 70.6981C106.202 65.3623 98.2613 65.3623 90.811 70.6981C96.8714 62.7538 96.8714 54.8127 90.811 46.875C98.7158 53.0605 106.657 53.0605 114.634 46.875C109.048 54.8193 109.048 62.7603 114.634 70.6981Z" fill="url(#paint4_linear_49183_115993)"/>
<path d="M82.3335 30.5327L88.7364 37.1233C90.5421 38.9879 92.7041 40.4705 95.0941 41.4831C97.4841 42.4956 100.053 43.0173 102.649 43.0173C105.244 43.0173 107.814 42.4956 110.204 41.4831C112.594 40.4705 114.756 38.9879 116.561 37.1233L133.043 20.0589L122.579 10L108.745 23.5172C107.066 25.1604 104.805 26.0724 102.456 26.0539C100.106 26.0354 97.8595 25.0879 96.2064 23.4184L92.5208 19.6537L82.3335 30.5327Z" fill="url(#paint5_linear_49183_115993)"/>
<path d="M131.659 39.3564L125.069 45.7494C123.205 47.5567 121.723 49.7198 120.711 52.1105C119.7 54.5012 119.178 57.0708 119.178 59.6668C119.178 62.2628 119.7 64.8324 120.711 67.2231C121.723 69.6138 123.205 71.777 125.069 73.5842L142.084 90.0361L152.143 79.5622L138.625 65.7288C136.982 64.0496 136.07 61.7883 136.089 59.4389C136.107 57.0895 137.055 54.8429 138.724 53.1898L142.528 49.524L131.659 39.3564Z" fill="url(#paint6_linear_49183_115993)"/>
<path d="M123.596 87.428L117.193 80.8374C115.388 78.9728 113.225 77.4901 110.835 76.4776C108.446 75.4651 105.876 74.9434 103.281 74.9434C100.685 74.9434 98.116 75.4651 95.726 76.4776C93.3361 77.4901 91.174 78.9728 89.3683 80.8374L72.877 97.9414L83.3508 108L97.1842 94.483C98.8634 92.8398 101.125 91.9278 103.474 91.9463C105.823 91.9648 108.07 92.9123 109.723 94.5818L113.438 98.3465L123.596 87.428Z" fill="url(#paint7_linear_49183_115993)"/>
<path d="M75.1201 80.2146L81.7107 73.8117C83.5753 72.0061 85.0579 69.844 86.0705 67.454C87.083 65.064 87.6047 62.4949 87.6047 59.8993C87.6047 57.3037 87.083 54.7346 86.0705 52.3446C85.0579 49.9546 83.5753 47.7925 81.7107 45.9869L64.6463 29.5054L54.5874 39.9693L68.1046 53.8027C69.7418 55.4811 70.65 57.7381 70.6315 60.0827C70.613 62.4272 69.6693 64.6697 68.0058 66.322L64.2411 70.0273L75.1201 80.2146Z" fill="url(#paint8_linear_49183_115993)"/>
<path d="M114.634 70.6981C106.202 65.3623 98.2613 65.3623 90.811 70.6981C96.8714 62.7538 96.8714 54.8127 90.811 46.875C98.7158 53.0605 106.657 53.0605 114.634 46.875C109.048 54.8193 109.048 62.7603 114.634 70.6981Z" fill="url(#paint9_linear_49183_115993)"/>
<defs>
<linearGradient id="paint0_linear_49183_115993" x1="105.159" y1="15.7112" x2="134.199" y2="125.617" gradientUnits="userSpaceOnUse">
<stop stop-color="#EDEDED"/>
<stop offset="1" stop-color="#EBEBEB" stop-opacity="0"/>
</linearGradient>
<linearGradient id="paint1_linear_49183_115993" x1="120.019" y1="11.7786" x2="149.07" y2="121.695" gradientUnits="userSpaceOnUse">
<stop stop-color="#EDEDED"/>
<stop offset="1" stop-color="#EBEBEB" stop-opacity="0"/>
</linearGradient>
<linearGradient id="paint2_linear_49183_115993" x1="79.6751" y1="22.4407" x2="108.725" y2="132.357" gradientUnits="userSpaceOnUse">
<stop stop-color="#EDEDED"/>
<stop offset="1" stop-color="#EBEBEB" stop-opacity="0"/>
</linearGradient>
<linearGradient id="paint3_linear_49183_115993" x1="65.1699" y1="26.2743" x2="94.2201" y2="136.19" gradientUnits="userSpaceOnUse">
<stop stop-color="#EDEDED"/>
<stop offset="1" stop-color="#EBEBEB" stop-opacity="0"/>
</linearGradient>
<linearGradient id="paint4_linear_49183_115993" x1="92.4513" y1="19.9493" x2="121.501" y2="129.856" gradientUnits="userSpaceOnUse">
<stop stop-color="#EDEDED"/>
<stop offset="1" stop-color="#EBEBEB" stop-opacity="0"/>
</linearGradient>
<linearGradient id="paint5_linear_49183_115993" x1="105.159" y1="15.7112" x2="134.199" y2="125.617" gradientUnits="userSpaceOnUse">
<stop stop-color="#EDEDED"/>
<stop offset="1" stop-color="#EBEBEB" stop-opacity="0"/>
</linearGradient>
<linearGradient id="paint6_linear_49183_115993" x1="120.019" y1="11.7786" x2="149.07" y2="121.695" gradientUnits="userSpaceOnUse">
<stop stop-color="#EDEDED"/>
<stop offset="1" stop-color="#EBEBEB" stop-opacity="0"/>
</linearGradient>
<linearGradient id="paint7_linear_49183_115993" x1="79.6751" y1="22.4407" x2="108.725" y2="132.357" gradientUnits="userSpaceOnUse">
<stop stop-color="#EDEDED"/>
<stop offset="1" stop-color="#EBEBEB" stop-opacity="0"/>
</linearGradient>
<linearGradient id="paint8_linear_49183_115993" x1="65.1699" y1="26.2743" x2="94.2201" y2="136.19" gradientUnits="userSpaceOnUse">
<stop stop-color="#EDEDED"/>
<stop offset="1" stop-color="#EBEBEB" stop-opacity="0"/>
</linearGradient>
<linearGradient id="paint9_linear_49183_115993" x1="92.4513" y1="19.9493" x2="121.501" y2="129.856" gradientUnits="userSpaceOnUse">
<stop stop-color="#EDEDED"/>
<stop offset="1" stop-color="#EBEBEB" stop-opacity="0"/>
</linearGradient>
</defs>
</svg>
