<svg xmlns="http://www.w3.org/2000/svg" xmlns:xlink="http://www.w3.org/1999/xlink" width="144.5" height="114.31" viewBox="0 0 144.5 114.31">
  <defs>
    <style>
      .cls-1 {
        fill: url(#未命名的渐变_205);
      }

      .cls-2 {
        fill: url(#未命名的渐变_205-2);
      }

      .cls-3 {
        fill: url(#未命名的渐变_205-3);
      }

      .cls-4 {
        fill: url(#未命名的渐变_205-4);
      }

      .cls-5 {
        fill: url(#未命名的渐变_205-5);
      }

      .cls-6 {
        fill: url(#未命名的渐变_205-6);
      }

      .cls-7 {
        fill: url(#未命名的渐变_205-7);
      }

      .cls-8 {
        fill: url(#未命名的渐变_205-8);
      }

      .cls-9 {
        opacity: 0.47;
      }

      .cls-10 {
        fill: url(#未命名的渐变_1199);
      }

      .cls-11 {
        fill: url(#未命名的渐变_1199-2);
      }

      .cls-12 {
        fill: url(#未命名的渐变_1199-3);
      }

      .cls-13 {
        fill: url(#未命名的渐变_1199-4);
      }
    </style>
    <linearGradient id="未命名的渐变_205" data-name="未命名的渐变 205" x1="99.03" y1="29.12" x2="26.04" y2="29.12" gradientUnits="userSpaceOnUse">
      <stop offset="0" stop-color="#03e7f5"/>
      <stop offset="0.21" stop-color="#02c5f4" stop-opacity="0.77"/>
      <stop offset="0.6" stop-color="#0189f1" stop-opacity="0.36"/>
      <stop offset="0.87" stop-color="#0064f0" stop-opacity="0.1"/>
      <stop offset="1" stop-color="#0055ef" stop-opacity="0"/>
    </linearGradient>
    <linearGradient id="未命名的渐变_205-2" x1="44.5" y1="29.12" x2="97.54" y2="29.12" xlink:href="#未命名的渐变_205"/>
    <linearGradient id="未命名的渐变_205-3" x1="33.38" y1="96.63" x2="-2.93" y2="96.63" xlink:href="#未命名的渐变_205"/>
    <linearGradient id="未命名的渐变_205-4" x1="18.75" y1="78.69" x2="16.03" y2="124.61" xlink:href="#未命名的渐变_205"/>
    <linearGradient id="未命名的渐变_205-5" x1="6.25" y1="96.63" x2="32.64" y2="96.63" xlink:href="#未命名的渐变_205"/>
    <linearGradient id="未命名的渐变_205-6" x1="142.02" y1="88.14" x2="96.71" y2="88.14" xlink:href="#未命名的渐变_205"/>
    <linearGradient id="未命名的渐变_205-7" x1="123.76" y1="65.75" x2="120.37" y2="123.06" xlink:href="#未命名的渐变_205"/>
    <linearGradient id="未命名的渐变_205-8" x1="108.17" y1="88.14" x2="141.09" y2="88.14" xlink:href="#未命名的渐变_205"/>
    <linearGradient id="未命名的渐变_1199" data-name="未命名的渐变 1199" x1="69.08" y1="37.52" x2="55.95" y2="24.14" gradientUnits="userSpaceOnUse">
      <stop offset="0" stop-color="#5ac9ff"/>
      <stop offset="1" stop-color="#00e9e5"/>
    </linearGradient>
    <linearGradient id="未命名的渐变_1199-2" x1="77.75" y1="28.72" x2="65.74" y2="16.47" xlink:href="#未命名的渐变_1199"/>
    <linearGradient id="未命名的渐变_1199-3" x1="72.09" y1="34.27" x2="60.08" y2="22.02" gradientTransform="translate(-3.2 34.86) rotate(-31.01)" xlink:href="#未命名的渐变_1199"/>
    <linearGradient id="未命名的渐变_1199-4" x1="76.38" y1="30.06" x2="64.37" y2="17.81" gradientTransform="translate(-1.99 39.2) rotate(-31.01)" xlink:href="#未命名的渐变_1199"/>
  </defs>
  <g id="图层_2" data-name="图层 2">
    <g id="图层_1-2" data-name="图层 1">
      <g>
        <g>
          <circle class="cls-1" cx="67.48" cy="29.12" r="29.12"/>
          <circle class="cls-2" cx="67.48" cy="29.12" r="22.83"/>
        </g>
        <g>
          <circle class="cls-3" cx="17.68" cy="96.63" r="14.49"/>
          <path class="cls-4" d="M17.68,114.31A17.69,17.69,0,1,1,35.37,96.63,17.7,17.7,0,0,1,17.68,114.31Zm0-34.91A17.23,17.23,0,1,0,34.92,96.63,17.25,17.25,0,0,0,17.68,79.4Z"/>
          <circle class="cls-5" cx="17.68" cy="96.63" r="11.36"/>
        </g>
        <g>
          <circle class="cls-6" cx="122.44" cy="88.14" r="18.08"/>
          <path class="cls-7" d="M122.44,110.21A22.07,22.07,0,1,1,144.5,88.14,22.09,22.09,0,0,1,122.44,110.21Zm0-43.57a21.51,21.51,0,1,0,21.5,21.5A21.53,21.53,0,0,0,122.44,66.64Z"/>
          <circle class="cls-8" cx="122.44" cy="88.14" r="14.17"/>
        </g>
        <g class="cls-9">
          <path class="cls-10" d="M76,34a2.3,2.3,0,0,0-3.25.13,6.61,6.61,0,0,1-5.34,2.53,6.81,6.81,0,0,1-5.5-2.54,2.3,2.3,0,0,0-3.36,3.14,11.35,11.35,0,0,0,8.86,4,11.14,11.14,0,0,0,8.72-4A2.3,2.3,0,0,0,76,34Z"/>
          <circle class="cls-11" cx="75.92" cy="26.85" r="2.6"/>
          <rect class="cls-12" x="58.62" y="16.36" width="5.2" height="13.66" rx="2.6" transform="translate(20.7 -28.23) rotate(31.01)"/>
          <rect class="cls-13" x="67.04" y="16.36" width="5.2" height="13.66" rx="2.6" transform="matrix(0.86, 0.52, -0.52, 0.86, 21.9, -32.57)"/>
        </g>
      </g>
    </g>
  </g>
</svg>
